<?xml version="1.0" encoding="utf-8"?>
<!-- Generator: Adobe Illustrator 26.0.1, SVG Export Plug-In . SVG Version: 6.00 Build 0)  -->
<svg version="1.1" id="Layer_1" xmlns="http://www.w3.org/2000/svg" xmlns:xlink="http://www.w3.org/1999/xlink" x="0px" y="0px"
	 viewBox="0 0 418.7 273.3" style="enable-background:new 0 0 418.7 273.3;" xml:space="preserve">
<style type="text/css">
	.st0{fill:#006838;}
	.st1{fill:url(#SVGID_1_);}
	.st2{fill:url(#SVGID_00000093168141845843854450000014309473071251564720_);}
	.st3{fill:#F15A29;}
	.st4{fill:#FFFFFF;}
</style>
<g>
	<path class="st0" d="M30.4,235.5c0-0.2-0.1-0.4-0.2-0.6s-0.5-0.2-1.1-0.3v-0.6h18.5c1.3,0,2.5,0.1,3.6,0.4c1.1,0.3,2.1,0.7,2.9,1.2
		c0.8,0.5,1.4,1.2,1.9,2.1c0.5,0.9,0.7,1.9,0.7,3.1c0,1.5-0.4,2.6-1.3,3.5s-2,1.5-3.3,1.8v0.1c1.6,0.5,3,1.1,4,2.1
		c1,0.9,1.6,2.3,1.6,4.1c0,1-0.2,1.9-0.6,2.8c-0.4,0.9-1,1.6-1.7,2.3c-0.8,0.6-1.8,1.2-3.1,1.6c-1.2,0.4-2.7,0.6-4.4,0.6H29V259
		c0.6-0.1,1-0.2,1.1-0.3s0.2-0.3,0.2-0.6V235.5z M44.2,243.7c1,0,1.9,0,2.6-0.1c0.7,0,1.2-0.2,1.6-0.3s0.7-0.4,0.8-0.7
		c0.2-0.3,0.2-0.7,0.2-1.2c0-0.5-0.1-0.9-0.2-1.2c-0.2-0.3-0.4-0.5-0.8-0.7c-0.4-0.2-0.9-0.3-1.6-0.3c-0.7,0-1.5-0.1-2.6-0.1h-6.6
		v4.5H44.2z M45.9,254.4c1.7,0,3-0.2,3.7-0.7c0.7-0.4,1.1-1.2,1.1-2.3s-0.4-1.8-1.1-2.3c-0.7-0.4-1.9-0.7-3.7-0.7h-8.2v5.8H45.9z"/>
	<path class="st0" d="M80.3,259c0.1,0,0.2,0,0.4,0c0.2,0,0.2-0.2,0.2-0.4c0-0.1-0.1-0.3-0.2-0.6c-0.1-0.3-0.2-0.6-0.4-0.9
		c-0.1-0.3-0.3-0.6-0.5-1c-0.2-0.3-0.3-0.6-0.4-0.8H68.3c-0.1,0.2-0.2,0.5-0.3,0.8c-0.1,0.3-0.3,0.6-0.5,1c-0.2,0.3-0.3,0.6-0.4,0.9
		c-0.1,0.3-0.2,0.5-0.2,0.6c0,0.2,0.1,0.4,0.2,0.4c0.2,0,0.3,0,0.4,0v0.6h-7.3V259c0.2,0,0.4,0,0.6-0.1c0.2-0.1,0.3-0.2,0.4-0.4
		c1-2.3,2-4.5,3-6.7c1-2.2,1.9-4.2,2.7-6c0.8-1.8,1.4-3.3,2-4.5c0.5-1.2,0.8-1.8,0.8-2c0-0.3-0.2-0.5-0.6-0.5v-0.6h10.1v0.6
		c-0.4,0-0.6,0.2-0.6,0.5c0,0.1,0.2,0.5,0.5,1.3c0.3,0.8,0.8,1.7,1.3,2.9c0.5,1.1,1.2,2.4,1.8,3.8c0.7,1.4,1.3,2.8,2,4.2
		c0.7,1.4,1.3,2.7,1.9,4c0.6,1.2,1,2.3,1.4,3.1c0.1,0.2,0.2,0.3,0.4,0.4c0.2,0.1,0.4,0.1,0.6,0.1v0.6h-8V259z M73.8,243.3l-4,8.5h8
		L73.8,243.3z"/>
	<path class="st0" d="M116.7,258.1c0,0.4,0.1,0.6,0.4,0.7c0.3,0.1,0.6,0.2,1,0.2v0.6h-9V259c0.3,0,0.6,0,0.9-0.1
		c0.3-0.1,0.5-0.2,0.5-0.5s-0.4-0.8-1.1-1.6c-0.7-0.8-1.6-1.8-2.7-2.9c-1.1-1.2-2.4-2.5-3.8-3.9c-1.4-1.4-2.8-3-4.1-4.6l-0.1,0.1
		v12.7c0,0.4,0.1,0.6,0.4,0.7c0.2,0.1,0.5,0.2,0.9,0.2v0.6h-8.3V259c0.3,0,0.6-0.1,0.8-0.2c0.2-0.1,0.4-0.3,0.4-0.7v-18.4
		c0-0.4-0.1-0.6-0.4-0.7c-0.3-0.1-0.6-0.2-0.9-0.2v-0.6h11.5v0.6c-0.2,0-0.5,0.1-0.7,0.2c-0.2,0.1-0.3,0.3-0.3,0.7
		c0,0.1,0.3,0.4,0.8,1c0.5,0.6,1.2,1.3,2.1,2.3c0.8,0.9,1.8,1.9,2.8,3c1,1.1,2.1,2.2,3.1,3.3v-9.5c0-0.4-0.1-0.6-0.4-0.7
		c-0.3-0.1-0.6-0.2-1-0.2v-0.6h8.5v0.6c-0.4,0-0.7,0.1-1,0.2c-0.3,0.1-0.4,0.3-0.4,0.7V258.1z"/>
	<path class="st0" d="M140.4,259c0.2,0,0.5,0,0.8-0.1c0.3-0.1,0.5-0.3,0.5-0.7c0-0.1-0.1-0.3-0.3-0.7c-0.2-0.4-0.5-0.8-0.8-1.3
		c-0.3-0.5-0.7-1.1-1.1-1.7c-0.4-0.6-0.8-1.2-1.2-1.8c-0.4-0.6-0.7-1.1-1-1.5c-0.3-0.5-0.5-0.8-0.7-1l-4.2,4.1v4
		c0,0.4,0.1,0.6,0.4,0.7s0.6,0.2,0.9,0.2v0.6h-9.1V259c0.3,0,0.6,0,0.8-0.1c0.3-0.1,0.4-0.4,0.4-0.7v-18.4c0-0.4-0.1-0.6-0.4-0.7
		c-0.3-0.1-0.5-0.2-0.8-0.1v-0.6h9.1v0.6c-0.3,0-0.6,0.1-0.9,0.2c-0.3,0.1-0.4,0.3-0.4,0.7v8.9c0.5-0.4,1.1-0.9,1.7-1.5
		c0.7-0.6,1.4-1.2,2.1-1.8c0.7-0.6,1.4-1.3,2.2-1.9c0.7-0.6,1.3-1.2,1.9-1.7s1-1,1.4-1.3c0.3-0.4,0.5-0.6,0.5-0.7
		c0-0.4-0.1-0.6-0.4-0.7c-0.3-0.1-0.5-0.2-0.8-0.2v-0.6h9.5v0.6c-0.5,0.1-1.1,0.4-1.9,1c-0.8,0.6-1.6,1.3-2.5,2.1
		c-0.9,0.8-1.7,1.6-2.6,2.4c-0.9,0.8-1.6,1.5-2.2,2l8,11.9c0.2,0.3,0.3,0.4,0.5,0.5c0.2,0.1,0.4,0.2,0.6,0.2v0.6h-9.9V259z"/>
	<path class="st0" d="M181.1,238c1.5,0,3,0.2,4.6,0.6s2.9,1.1,4.2,2c1.2,0.9,2.3,2,3,3.4c0.8,1.4,1.2,3,1.2,4.9c0,1.9-0.4,3.6-1.2,5
		c-0.8,1.4-1.8,2.5-3,3.4c-1.2,0.9-2.6,1.5-4.2,1.9s-3.1,0.6-4.6,0.6c-1.5,0-3-0.2-4.6-0.6c-1.5-0.4-2.9-1-4.2-1.9
		c-1.2-0.9-2.3-2-3-3.4c-0.8-1.4-1.2-3-1.2-5c0-1.9,0.4-3.6,1.2-4.9c0.8-1.4,1.8-2.5,3-3.4c1.2-0.9,2.6-1.5,4.2-2
		C178.1,238.2,179.6,238,181.1,238z M181.1,243.1c-0.9,0-1.8,0.1-2.6,0.4c-0.8,0.3-1.5,0.7-2.1,1.2c-0.6,0.5-1.1,1.1-1.4,1.8
		c-0.3,0.7-0.5,1.5-0.5,2.4c0,0.9,0.2,1.7,0.5,2.4c0.3,0.7,0.8,1.3,1.4,1.8c0.6,0.5,1.3,0.9,2.1,1.2c0.8,0.3,1.7,0.4,2.6,0.4
		c0.9,0,1.8-0.1,2.6-0.4c0.8-0.3,1.5-0.7,2.1-1.2s1.1-1.1,1.4-1.8c0.3-0.7,0.5-1.5,0.5-2.4c0-0.9-0.2-1.7-0.5-2.4
		c-0.3-0.7-0.8-1.3-1.4-1.8s-1.3-0.9-2.1-1.2C182.9,243.2,182.1,243.1,181.1,243.1z"/>
	<path class="st0" d="M199.4,239.7c0-0.4-0.1-0.6-0.4-0.7c-0.3-0.1-0.6-0.2-1.1-0.2v-0.6H219c0.2,0,0.4-0.1,0.6-0.2
		c0.2-0.1,0.3-0.4,0.3-0.9h0.6v6.7h-0.6c0-0.5-0.1-0.8-0.3-0.9c-0.2-0.1-0.4-0.2-0.6-0.2h-13.1v4.5h8.9c0.2,0,0.4-0.1,0.6-0.2
		c0.2-0.1,0.3-0.4,0.3-0.9h0.6v6.5h-0.6c0-0.5-0.1-0.8-0.3-0.9c-0.2-0.1-0.4-0.2-0.6-0.2h-8.9v6.6c0,0.4,0.1,0.6,0.4,0.7
		c0.3,0.1,0.6,0.2,1,0.2v0.6H198V259c0.4,0,0.7-0.1,1-0.2c0.3-0.1,0.4-0.3,0.4-0.7V239.7z"/>
	<path class="st0" d="M259.7,250.3c-0.1-0.3-0.2-0.6-0.4-0.8c-0.2-0.2-0.6-0.3-1-0.3h-9v4.5h15.6c0.3,0,0.5-0.1,0.6-0.3
		c0.1-0.2,0.2-0.6,0.3-1.2h0.6v8.3h-0.6c-0.1-0.4-0.2-0.7-0.3-0.8c-0.1-0.1-0.3-0.1-0.6-0.1h-24.2V259c0.6-0.1,1-0.2,1.1-0.3
		s0.2-0.3,0.2-0.6v-22.6c0-0.2-0.1-0.4-0.2-0.6s-0.5-0.2-1.1-0.3v-0.6h24.2c0.3,0,0.5-0.1,0.6-0.3c0.1-0.2,0.2-0.5,0.3-1.1h0.6v8.4
		h-0.6c-0.1-0.5-0.2-0.9-0.3-1.1c-0.1-0.2-0.3-0.3-0.6-0.3h-15.6v4h9c0.5,0,0.8-0.1,1-0.3c0.2-0.2,0.3-0.5,0.4-0.8h0.6v7.6H259.7z"
		/>
	<path class="st0" d="M293.7,238.3c0.2,0,0.4-0.1,0.6-0.2c0.2-0.1,0.3-0.4,0.3-0.9h0.6v7.1h-0.6c0-0.5-0.1-0.7-0.3-0.9
		c-0.2-0.1-0.4-0.2-0.6-0.2h-6.9v14.9c0,0.4,0.1,0.6,0.4,0.7c0.2,0.1,0.5,0.2,0.8,0.2v0.6h-8.7V259c0.3,0,0.5-0.1,0.8-0.2
		s0.4-0.3,0.4-0.7v-14.9h-6.9c-0.2,0-0.4,0.1-0.6,0.2c-0.2,0.1-0.3,0.4-0.3,0.9h-0.6v-7.1h0.6c0,0.5,0.1,0.7,0.3,0.9
		c0.2,0.1,0.4,0.2,0.6,0.2H293.7z"/>
	<path class="st0" d="M307.8,258.1c0,0.4,0.1,0.6,0.4,0.7c0.3,0.1,0.6,0.2,1,0.2v0.6h-9.2V259c0.4,0,0.7-0.1,1-0.2s0.4-0.3,0.4-0.7
		v-18.4c0-0.4-0.1-0.6-0.4-0.7c-0.3-0.1-0.6-0.2-1-0.2v-0.6h9.2v0.6c-0.4,0-0.7,0.1-1,0.2c-0.3,0.1-0.4,0.3-0.4,0.7v6.1h10.7v-6.1
		c0-0.4-0.1-0.6-0.4-0.7c-0.3-0.1-0.6-0.2-1-0.2v-0.6h9.2v0.6c-0.4,0-0.7,0.1-1,0.2c-0.3,0.1-0.4,0.3-0.4,0.7v18.4
		c0,0.4,0.1,0.6,0.4,0.7s0.6,0.2,1,0.2v0.6h-9.2V259c0.4,0,0.7-0.1,1-0.2c0.3-0.1,0.4-0.3,0.4-0.7v-7.4h-10.7V258.1z"/>
	<path class="st0" d="M350.3,259c0.1,0,0.2,0,0.4,0c0.2,0,0.2-0.2,0.2-0.4c0-0.1-0.1-0.3-0.2-0.6c-0.1-0.3-0.2-0.6-0.4-0.9
		c-0.1-0.3-0.3-0.6-0.5-1c-0.2-0.3-0.3-0.6-0.4-0.8h-11.2c-0.1,0.2-0.2,0.5-0.3,0.8c-0.1,0.3-0.3,0.6-0.5,1
		c-0.2,0.3-0.3,0.6-0.4,0.9c-0.1,0.3-0.2,0.5-0.2,0.6c0,0.2,0.1,0.4,0.2,0.4c0.2,0,0.3,0,0.4,0v0.6h-7.3V259c0.2,0,0.4,0,0.6-0.1
		c0.2-0.1,0.3-0.2,0.4-0.4c1-2.3,2-4.5,3-6.7c1-2.2,1.9-4.2,2.7-6c0.8-1.8,1.4-3.3,2-4.5c0.5-1.2,0.8-1.8,0.8-2
		c0-0.3-0.2-0.5-0.6-0.5v-0.6h10.1v0.6c-0.4,0-0.6,0.2-0.6,0.5c0,0.1,0.2,0.5,0.5,1.3c0.3,0.8,0.8,1.7,1.3,2.9
		c0.5,1.1,1.2,2.4,1.8,3.8c0.7,1.4,1.3,2.8,2,4.2c0.7,1.4,1.3,2.7,1.9,4c0.6,1.2,1,2.3,1.4,3.1c0.1,0.2,0.2,0.3,0.4,0.4
		c0.2,0.1,0.4,0.1,0.6,0.1v0.6h-8V259z M343.8,243.3l-4,8.5h8L343.8,243.3z"/>
	<path class="st0" d="M387.7,258.1c0,0.4,0.1,0.6,0.4,0.7c0.3,0.1,0.6,0.2,1,0.2v0.6h-9V259c0.3,0,0.6,0,0.9-0.1
		c0.3-0.1,0.5-0.2,0.5-0.5s-0.4-0.8-1.1-1.6c-0.7-0.8-1.6-1.8-2.7-2.9c-1.1-1.2-2.4-2.5-3.8-3.9c-1.4-1.4-2.8-3-4.1-4.6l-0.1,0.1
		v12.7c0,0.4,0.1,0.6,0.4,0.7c0.2,0.1,0.5,0.2,0.9,0.2v0.6h-8.3V259c0.3,0,0.6-0.1,0.8-0.2c0.2-0.1,0.4-0.3,0.4-0.7v-18.4
		c0-0.4-0.1-0.6-0.4-0.7c-0.3-0.1-0.6-0.2-0.9-0.2v-0.6h11.5v0.6c-0.2,0-0.5,0.1-0.7,0.2c-0.2,0.1-0.3,0.3-0.3,0.7
		c0,0.1,0.3,0.4,0.8,1c0.5,0.6,1.2,1.3,2.1,2.3c0.8,0.9,1.8,1.9,2.8,3c1,1.1,2.1,2.2,3.1,3.3v-9.5c0-0.4-0.1-0.6-0.4-0.7
		c-0.3-0.1-0.6-0.2-1-0.2v-0.6h8.5v0.6c-0.4,0-0.7,0.1-1,0.2c-0.3,0.1-0.4,0.3-0.4,0.7V258.1z"/>
</g>
<g>
	<linearGradient id="SVGID_1_" gradientUnits="userSpaceOnUse" x1="135.4493" y1="195.7347" x2="288.3379" y2="41.6609">
		<stop  offset="0" style="stop-color:#006838"/>
		<stop  offset="1" style="stop-color:#8DC63F"/>
	</linearGradient>
	<path class="st1" d="M245.1,88.4c-1.2-1-2.3-1.9-3.4-2.9c-0.3,0.9-0.1,2,0.5,2.5C243,88.7,244,88.6,245.1,88.4z"/>
	
		<linearGradient id="SVGID_00000097477120925192145750000012514352510809246100_" gradientUnits="userSpaceOnUse" x1="129.5993" y1="189.9296" x2="282.4878" y2="35.8558">
		<stop  offset="0" style="stop-color:#006838"/>
		<stop  offset="1" style="stop-color:#8DC63F"/>
	</linearGradient>
	<path style="fill:url(#SVGID_00000097477120925192145750000012514352510809246100_);" d="M209,10.6c-54.8,0-99.3,44.4-99.3,99.3
		s44.4,99.3,99.3,99.3c54.8,0,99.3-44.4,99.3-99.3C308.3,55,263.9,10.6,209,10.6z M232.2,73.9c0.7,0.6,1.3,1.3,2,1.8
		c2.5,2.2,5.4,3.8,8.3,5.2c1.2,0.6,2.4,1.2,3.6,1.9c2.5,1.6,3.2,3.5,2.3,6.4c0,0.2-0.1,0.3-0.1,0.4c1.3,0.9,2.5,1.7,3.6,2.6
		c0.9,0.8,1.6,1.8,1.7,3.1c0.1,1.7-0.8,2.9-2.1,3.9c0-0.1,0.1-0.2,0.1-0.3c0.3-0.9,0-1.6-0.8-2.1c-0.9-0.5-2-0.8-3-0.8
		c-1.3-0.1-2.6-0.1-3.9-0.1c-0.2,0-0.5,0.1-0.7,0.2c-1.9,1.3-2.4,3.2-1.3,5.3c0.5,0.9,1.1,1.7,2,2.4c2.1,1.6,3.8,3.4,4.9,5.9
		c1,2.1,1.2,4.4,0.5,6.6c0,0.1-0.1,0.3-0.1,0.4c0,0-0.1,0.1-0.1,0.1c-0.9-0.8-1.7-1.7-2.6-2.6c1.4,6.4-0.7,11.8-4.2,17
		c0-0.5,0-0.9-0.1-1.4c-0.2-2.8-1.5-5.1-3.1-7.3c-2.3-3-5.1-5.5-8-7.8c-2.8-2.2-5.7-4.4-8.4-6.7c-1-0.8-1.9-1.7-2.7-2.6
		c-1.9-2.4-2.1-5.1-1.1-7.9c0.7-1.9,1.7-3.5,3-5c0.1-0.1,0.2-0.2,0.2-0.4c-1.1,0.6-2.3,1.2-3.5,1.9c0.8-2.2,2.1-4,3.6-5.5
		c1.6-1.5,3.3-2.8,5.2-3.9c-1.7,0.2-3.5,0.4-5.2,0.5c3.2-3.4,7.2-4.5,11.9-4C231.8,79,231.4,76.7,232.2,73.9z M233.4,163.9
		c1.3-1.3,2.6-2.3,4-3.2c-3.1-4.8-6.5-9.4-7.8-15.1c-0.7,0.5-1.4,0.9-2.1,1.5c-0.2-0.7-0.3-1.3-0.5-2c-0.6-3-0.9-6.1-0.9-9.2
		c0-2.5-0.2-5-0.8-7.5c-0.2-0.8-0.4-1.5-1.1-2.2c0,0.3,0,0.4,0,0.6c0.1,2.5,0.2,5.1,0.2,7.6c0,0.9-0.1,1.8-0.1,2.7
		c0,0.1-0.1,0.3-0.2,0.4c-0.8,0.5-1.7,1-2.5,1.4c-0.4-1.2-0.7-2.4-1.1-3.6c-0.8-2-2-3.6-4-4.5c-1.6-0.7-3.2-0.8-4.9-0.4
		c1,0.6,2.1,1.1,3.1,1.8c2.1,1.4,3.6,3.4,4,6c0.3,2-0.1,3.9-0.8,5.8c-1.7,4.3-4.7,7.4-8.7,9.5c-1,0.6-2.1,1-3.2,1.5
		c0.5,0,1.1-0.1,1.7-0.1c3.8-0.2,7.6-0.2,11.3,0.3c2.4,0.3,4.8,0.8,6.9,2c1.4,0.8,2.6,1.9,2.9,3.5c0.2,1.1,0,2.2-0.3,3.2h-39.9
		c0,0,0,0-0.1-0.1c-2.3-2.9-4-6.1-4.8-9.7c0-0.1,0-0.2-0.1-0.2c0,0,0-0.1-0.1-0.1c-0.1,0.2-0.2,0.3-0.3,0.4
		c-1.1,1.9-2.3,3.8-3.8,5.5c-1.9,2.1-4.2,3.4-6.9,4.2c-0.1,0-0.2,0-0.3,0.1h-10.6c-2-0.7-3.8-2-5-3.9c-1.4-2.1-1.7-4.4-1.5-6.8
		c0.3-3.1,1.5-5.9,3.2-8.5c1.1-1.7,2.7-3,4.4-4c3-1.9,6.1-3.6,9.1-5.4c2.8-1.6,5.6-3.1,8-5.2c1.5-1.2,2.9-2.6,3.7-4.5
		c1-2.4,0.2-5.2-1.8-7c-2-1.7-4.3-2.3-6.9-2c-6.5,0.7-11.5,3.9-15.2,9.1c-0.8,1.1-1.3,2.4-1.9,3.7c-0.1,0.1,0,0.4,0.1,0.5
		c2.5,2,2.7,4.5,1.7,7.3c-0.5,1.5-1.3,2.8-2.3,4c0,0-0.1,0.1-0.2,0.2c0-0.6,0-1.1,0-1.6c-0.9,0-1.3,0.5-1.7,1.2
		c-0.6,1-0.7,2.1-0.8,3.3c-0.1,0.7-0.1,1.4-0.2,2.1c-0.3-1-0.6-2.1-0.9-3.1c-0.8-2.8-1.4-5.7-1.3-8.6c0-1.3,0.2-2.6,0.9-3.7
		c0.4-0.7,1-1.1,1.8-1.3c0.2,0,0.4-0.2,0.4-0.4c2-6.9,6.6-11.5,13.1-14.3c2.8-1.2,5.8-1.9,8.9-1.6c4.6,0.3,8,2.5,9.9,6.8
		c0.6,1.4,1.1,2.9,1.2,4.5c0.2,2.7-0.9,5.1-2.6,7.1c-1.9,2.1-4.2,3.7-6.6,5.1c-3,1.7-6,3.3-9,4.9c-2,1.1-3.9,2.2-5.6,3.6
		c-2.8,2.4-4.3,5.4-4.5,9c-0.2,3.2,1.7,5.4,4.9,5.8c2.7,0.4,5.2-0.2,7.7-1.2c2.5-1,4.3-2.8,5.6-5c1.5-2.6,2.9-5.3,4.4-7.9
		c1.6-2.9,3.3-5.8,5.8-8c1.8-1.5,3.7-3,5.6-4.4c3.4-2.4,6.9-4.7,10.3-7.1c1.5-1.1,2.6-2.6,3.2-4.3c0.7-2,0.1-3.8-1.6-5.1
		c-1.6-1.2-3.4-1.9-5.4-2.3c-2.5-0.5-5.1-0.9-7.7-1.4c-6.3-1.2-12.4-3.1-18-6.2c-1.4-0.8-2.7-1.8-4.1-2.7c-0.2-0.1-0.3-0.3-0.5-0.5
		c7.8,0.8,15.6,1.5,23.4,2.3c-13-2.9-25.1-7.8-35.2-16.7c0-0.1,0-0.1,0.1-0.2c8.2,1.6,16.3,3.1,24.5,4.7c0,0,0-0.1,0-0.1
		c-0.9-0.3-1.7-0.5-2.6-0.8c-6.3-2-12.4-4.3-18.3-7.4c-3.4-1.8-6.7-3.9-9.5-6.7c-0.9-0.9-1.6-1.9-2.4-2.9c-0.2-0.2-0.2-0.4-0.4-0.8
		c9.2,1.4,18.2,2.9,27.2,4.3c0,0,0-0.1,0-0.1c-1.5-0.4-3.1-0.7-4.6-1.1c-9.4-2.4-18.3-6-26.4-11.4c-3.6-2.4-7-5.1-9.9-8.3
		c-0.2-0.2-0.3-0.4-0.5-0.6c0,0,0-0.1-0.1-0.2c0.7,0.1,1.4,0.2,2.1,0.4c9,1.7,18,3.5,27.1,5.2c9,1.7,17.9,3.4,26.9,5.1
		c5.6,1.1,11.1,2.1,16.7,3.2c3.4,0.7,6.8,1.5,10.1,2.9c1.7,0.7,3.3,1.5,4.6,2.8c0.7,0.7,1.2,1.6,1.5,2.5c0.1,0.4,0,0.5-0.3,0.6
		c-2.5,1.2-4.9,2.6-7.1,4.4c-2.3,1.9-4.3,4-5.3,6.9c-1,2.7-0.8,5.3,0.2,7.9c1.1,2.9,3.1,5.3,5.2,7.5c2,2.1,4.5,3.7,6.8,5.4
		c5.5,4.1,10.3,8.8,13.8,14.8c2.1,3.6,3.3,7.5,3.6,11.7c0.4,4.9,0.8,9.8,1.3,14.7c0.2,1.8,0.4,3.7,1.3,5.3c0.2,0.4,0.5,0.8,0.7,1.2
		c0.7-0.3,1.3-0.5,1.9-0.8c1.8-0.7,3.6-1.2,5.5-1.1c0.5,0,1.1,0.1,1.6,0.3c1.6,0.5,2.4,3.2,2.6,5.1H233.4z M275.7,117.6
		c-2.1,1.4-3.7,3.2-5.1,5.2c-1.5,2.1-2.8,4.3-4,6.6c-0.1,0.1-0.1,0.3-0.2,0.4c-0.9-1.4-1.5-2.9-1.5-4.5c-0.1-1.6,0.5-3.1,1.6-4.3
		c0,0-0.1-0.1-0.1-0.1c-1.1,0.3-2.1,0.6-3.2,1c-3.2,1.2-6.1,3-8.9,4.9c-2,1.3-3.9,2.8-5.8,4.2c-0.1,0.1-0.2,0.1-0.3,0.2
		c1.9-3.9,2.7-8.1,2.4-12.5c0.9-0.1,1.7-0.3,2.5-0.4c4.8-0.7,9.7-1.5,14.5-2.2c0.2,0,0.4-0.1,0.5-0.1c1.4,0,2.5-0.6,3.5-1.5
		c1.3-1.1,2.9-1.9,4.6-2.3c2.5-0.5,4.5,0.3,5.8,2.4c0.4,0.7,0.8,1.5,1.2,2.2c-1.1-0.2-2-0.6-3-0.7
		C278.6,116,277.1,116.7,275.7,117.6z"/>
</g>
<ellipse transform="matrix(0.7071 -0.7071 0.7071 0.7071 375.0078 598.8609)" class="st3" cx="910.4" cy="-153.2" rx="99.3" ry="99.3"/>
<g>
	<path class="st4" d="M923.6-178.1c1.7-0.2,3.5-0.4,5.2-0.5c-1.9,1.1-3.7,2.4-5.2,3.9c-1.6,1.6-2.9,3.3-3.6,5.5
		c1.3-0.7,2.4-1.3,3.5-1.9c0,0.2-0.1,0.3-0.2,0.4c-1.3,1.5-2.4,3.1-3,5c-1,2.8-0.9,5.5,1.1,7.9c0.8,1,1.7,1.8,2.7,2.6
		c2.8,2.3,5.6,4.5,8.4,6.7c2.9,2.3,5.8,4.8,8,7.8c1.6,2.2,2.9,4.5,3.1,7.3c0,0.5,0,0.9,0.1,1.4c3.5-5.1,5.6-10.6,4.2-17
		c0.9,0.9,1.8,1.7,2.6,2.6c0,0,0.1-0.1,0.1-0.1c0-0.1,0.1-0.3,0.1-0.4c0.7-2.3,0.4-4.5-0.5-6.6c-1.1-2.4-2.8-4.3-4.9-5.9
		c-0.8-0.6-1.5-1.4-2-2.4c-1.1-2.1-0.6-3.9,1.3-5.3c0.2-0.1,0.5-0.2,0.7-0.2c1.3,0,2.6,0,3.9,0.1c1,0.1,2.1,0.3,3,0.8
		c0.8,0.5,1.1,1.2,0.8,2.1c0,0.1-0.1,0.2-0.1,0.3c1.2-1,2.2-2.2,2.1-3.9c-0.1-1.3-0.7-2.3-1.7-3.1c-1.1-0.9-2.3-1.7-3.6-2.6
		c0-0.1,0.1-0.2,0.1-0.4c0.9-2.9,0.3-4.7-2.3-6.4c-1.1-0.7-2.4-1.3-3.6-1.9c-3-1.5-5.8-3-8.3-5.2c-0.7-0.6-1.3-1.2-2-1.8
		c-0.8,2.8-0.4,5.2,1.9,7.2C930.8-182.6,926.8-181.5,923.6-178.1z M943-177.6c1.1,1,2.2,1.9,3.4,2.9c-1.1,0.2-2.1,0.3-2.9-0.4
		C943-175.6,942.8-176.7,943-177.6z"/>
	<path class="st4" d="M955.2-104.3c-0.5-0.2-1.1-0.2-1.6-0.3c-1.9,0-3.7,0.5-5.5,1.1c-0.6,0.2-1.2,0.5-1.9,0.8
		c-0.3-0.4-0.5-0.8-0.7-1.2c-0.9-1.7-1.1-3.5-1.3-5.3c-0.5-4.9-0.9-9.8-1.3-14.7c-0.3-4.2-1.5-8.1-3.6-11.7
		c-3.5-6-8.3-10.7-13.8-14.8c-2.3-1.7-4.7-3.3-6.8-5.4c-2.2-2.2-4.1-4.6-5.2-7.5c-1-2.6-1.2-5.2-0.2-7.9c1-2.9,3-5,5.3-6.9
		c2.2-1.8,4.6-3.2,7.1-4.4c0.3-0.2,0.4-0.3,0.3-0.6c-0.3-1-0.8-1.8-1.5-2.5c-1.3-1.3-2.9-2.1-4.6-2.8c-3.3-1.3-6.7-2.2-10.1-2.9
		c-5.5-1.1-11.1-2.1-16.7-3.2c-9-1.7-17.9-3.4-26.9-5.1c-9-1.7-18-3.4-27.1-5.2c-0.7-0.1-1.3-0.2-2.1-0.4c0,0.1,0.1,0.2,0.1,0.2
		c0.2,0.2,0.3,0.4,0.5,0.6c2.9,3.2,6.3,5.9,9.9,8.3c8.1,5.4,17,9.1,26.4,11.4c1.5,0.4,3,0.7,4.6,1.1c0,0,0,0.1,0,0.1
		c-9-1.4-18.1-2.9-27.2-4.3c0.2,0.3,0.3,0.6,0.4,0.8c0.8,1,1.5,2,2.4,2.9c2.8,2.8,6.1,4.8,9.5,6.7c5.8,3.1,12,5.4,18.3,7.4
		c0.9,0.3,1.7,0.5,2.6,0.8c0,0,0,0.1,0,0.1c-8.2-1.6-16.3-3.1-24.5-4.7c0,0.1,0,0.1-0.1,0.2c10.1,9,22.2,13.8,35.2,16.7
		c-7.8-0.8-15.6-1.5-23.4-2.3c0.1,0.2,0.3,0.4,0.5,0.5c1.4,0.9,2.7,1.9,4.1,2.7c5.6,3.2,11.7,5,18,6.2c2.6,0.5,5.1,0.9,7.7,1.4
		c1.9,0.4,3.8,1.1,5.4,2.3c1.8,1.3,2.4,3.1,1.6,5.1c-0.6,1.7-1.7,3.2-3.2,4.3c-3.4,2.4-6.9,4.7-10.3,7.1c-1.9,1.4-3.8,2.9-5.6,4.4
		c-2.6,2.2-4.2,5.1-5.8,8c-1.5,2.6-2.8,5.3-4.4,7.9c-1.3,2.2-3.1,4-5.6,5c-2.5,0.9-5,1.6-7.7,1.2c-3.2-0.5-5.1-2.6-4.9-5.8
		c0.3-3.6,1.7-6.7,4.5-9c1.7-1.5,3.7-2.6,5.6-3.6c3-1.6,6-3.2,9-4.9c2.4-1.4,4.7-3,6.6-5.1c1.8-2,2.8-4.3,2.6-7.1
		c-0.1-1.6-0.6-3.1-1.2-4.5c-1.9-4.3-5.2-6.5-9.9-6.8c-3.1-0.2-6.1,0.4-8.9,1.6c-6.4,2.8-11.1,7.4-13.1,14.3c0,0.2-0.2,0.3-0.4,0.4
		c-0.8,0.2-1.4,0.7-1.8,1.3c-0.7,1.1-0.9,2.4-0.9,3.7c0,3,0.6,5.8,1.3,8.6c0.3,1.1,0.6,2.1,0.9,3.1c0.1-0.7,0.2-1.4,0.2-2.1
		c0.1-1.1,0.3-2.3,0.8-3.3c0.3-0.6,0.8-1.2,1.7-1.2c0,0.5,0,1,0,1.6c0.1-0.1,0.2-0.1,0.2-0.2c0.9-1.2,1.7-2.5,2.3-4
		c1-2.8,0.8-5.3-1.7-7.3c-0.1-0.1-0.2-0.4-0.1-0.5c0.6-1.2,1.1-2.6,1.9-3.7c3.7-5.3,8.8-8.4,15.2-9.1c2.5-0.3,4.9,0.3,6.9,2
		c2,1.8,2.8,4.6,1.8,7c-0.8,1.9-2.2,3.2-3.7,4.5c-2.5,2-5.3,3.6-8,5.2c-3.1,1.8-6.1,3.6-9.1,5.4c-1.7,1.1-3.3,2.3-4.4,4
		c-1.7,2.6-2.9,5.4-3.2,8.5c-0.3,2.4,0.1,4.7,1.5,6.8c1.3,1.9,3,3.2,5,3.9h10.6c0.1,0,0.2,0,0.3-0.1c2.7-0.8,5-2.1,6.9-4.2
		c1.5-1.7,2.7-3.5,3.8-5.5c0.1-0.1,0.2-0.3,0.3-0.4c0.1,0.1,0.1,0.1,0.1,0.1c0,0.1,0,0.2,0.1,0.2c0.8,3.6,2.4,6.8,4.8,9.7
		c0,0,0,0,0.1,0.1h39.9c0.4-1,0.6-2.1,0.3-3.2c-0.4-1.7-1.5-2.8-2.9-3.5c-2.2-1.2-4.5-1.7-6.9-2c-3.8-0.5-7.5-0.5-11.3-0.3
		c-0.6,0-1.1,0.1-1.7,0.1c1.1-0.5,2.2-0.9,3.2-1.5c4-2.1,7-5.2,8.7-9.5c0.7-1.9,1.1-3.8,0.8-5.8c-0.4-2.6-1.9-4.5-4-6
		c-1-0.7-2-1.2-3.1-1.8c1.6-0.4,3.3-0.4,4.9,0.4c2,0.9,3.2,2.5,4,4.5c0.5,1.2,0.8,2.4,1.1,3.6c0.8-0.4,1.7-0.9,2.5-1.4
		c0.1-0.1,0.2-0.2,0.2-0.4c0.1-0.9,0.2-1.8,0.1-2.7c-0.1-2.5-0.2-5.1-0.2-7.6c0-0.2,0-0.3,0-0.6c0.7,0.7,0.9,1.4,1.1,2.2
		c0.6,2.5,0.8,5,0.8,7.5c0,3.1,0.3,6.1,0.9,9.2c0.1,0.6,0.3,1.3,0.5,2c0.8-0.5,1.5-1,2.1-1.5c1.3,5.8,4.7,10.3,7.8,15.1
		c-1.4,0.9-2.8,1.9-4,3.2l23.1,0C957.7-101.1,956.8-103.8,955.2-104.3z"/>
	<path class="st4" d="M977.7-150.9c-1.7,0.4-3.2,1.2-4.6,2.3c-1.1,0.9-2.2,1.5-3.5,1.5c-0.2,0-0.4,0-0.5,0.1
		c-4.8,0.7-9.7,1.5-14.5,2.2c-0.8,0.1-1.7,0.3-2.5,0.4c0.2,4.4-0.5,8.6-2.4,12.5c0.1,0,0.2-0.1,0.3-0.2c1.9-1.4,3.8-2.8,5.8-4.2
		c2.8-1.9,5.7-3.7,8.9-4.9c1-0.4,2.1-0.7,3.2-1c0,0,0.1,0.1,0.1,0.1c-1.1,1.2-1.7,2.6-1.6,4.3c0.1,1.6,0.6,3.1,1.5,4.5
		c0.1-0.2,0.2-0.3,0.2-0.4c1.1-2.3,2.4-4.5,4-6.6c1.5-2,3.1-3.8,5.1-5.2c1.4-0.9,2.9-1.6,4.6-1.4c1,0.1,1.9,0.4,3,0.7
		c-0.4-0.7-0.7-1.5-1.2-2.2C982.2-150.6,980.2-151.4,977.7-150.9z"/>
</g>
</svg>
