<?xml version="1.0" encoding="utf-8"?>
<!-- Generator: Adobe Illustrator 26.0.1, SVG Export Plug-In . SVG Version: 6.00 Build 0)  -->
<svg version="1.1" id="Layer_1" xmlns="http://www.w3.org/2000/svg" xmlns:xlink="http://www.w3.org/1999/xlink" x="0px" y="0px"
	 viewBox="0 0 760 133.3" style="enable-background:new 0 0 760 133.3;" xml:space="preserve">
<style type="text/css">
	.st0{fill:#006838;}
	.st1{fill:url(#SVGID_1_);}
	.st2{fill:url(#SVGID_00000093170152730999096600000015316174208730288302_);}
	.st3{fill:#F15A29;}
	.st4{fill:#FFFFFF;}
</style>
<g>
	<path class="st0" d="M38.5,51c0-0.4-0.1-0.6-0.3-0.9c-0.2-0.2-0.8-0.4-1.8-0.5v-0.9l29,0c2.1,0,4,0.2,5.7,0.6
		c1.7,0.4,3.2,1,4.5,1.9c1.3,0.8,2.3,1.9,3,3.3c0.7,1.3,1.1,3,1.1,4.8c0,2.3-0.7,4.1-2.1,5.5c-1.4,1.4-3.1,2.3-5.2,2.8v0.2
		c2.6,0.7,4.7,1.8,6.4,3.3c1.6,1.5,2.5,3.6,2.5,6.5c0,1.5-0.3,3-0.9,4.3c-0.6,1.4-1.5,2.6-2.7,3.6c-1.2,1-2.8,1.8-4.8,2.4
		c-2,0.6-4.3,0.9-7,0.9H36.3v-0.9c1-0.1,1.6-0.3,1.8-0.5c0.2-0.2,0.3-0.5,0.3-0.9L38.5,51z M60.2,63.8c1.6,0,3,0,4-0.1
		c1.1-0.1,1.9-0.2,2.5-0.5s1-0.6,1.3-1.1c0.3-0.5,0.4-1.1,0.4-1.8c0-0.8-0.1-1.4-0.4-1.8c-0.3-0.5-0.7-0.8-1.3-1.1
		c-0.6-0.3-1.4-0.4-2.5-0.5c-1.1-0.1-2.4-0.1-4-0.1l-10.3,0l0,7H60.2z M62.8,80.6c2.7,0,4.7-0.3,5.8-1c1.1-0.7,1.7-1.9,1.7-3.5
		c0-1.7-0.6-2.9-1.7-3.5c-1.1-0.7-3-1-5.8-1H49.9l0,9.1H62.8z"/>
	<path class="st0" d="M116.8,87.8c0.2,0,0.4,0,0.6-0.1c0.3-0.1,0.4-0.3,0.4-0.6c0-0.2-0.1-0.5-0.3-1c-0.2-0.4-0.4-0.9-0.6-1.4
		c-0.2-0.5-0.5-1-0.7-1.5c-0.3-0.5-0.5-0.9-0.6-1.3H97.9c-0.1,0.4-0.3,0.8-0.5,1.3c-0.2,0.5-0.5,1-0.7,1.5c-0.3,0.5-0.5,1-0.7,1.4
		c-0.2,0.4-0.3,0.7-0.3,1c0,0.4,0.1,0.6,0.4,0.6c0.3,0.1,0.5,0.1,0.6,0.1v0.9H85.3v-0.9c0.3,0,0.6-0.1,0.9-0.2
		c0.3-0.1,0.5-0.3,0.6-0.6c1.5-3.5,3.1-7.1,4.6-10.5c1.6-3.5,3-6.6,4.2-9.4c1.2-2.8,2.3-5.1,3.1-7c0.8-1.8,1.2-2.9,1.2-3.2
		c0-0.5-0.3-0.7-1-0.8v-0.9h15.9v0.9c-0.7,0.1-1,0.3-1,0.8c0,0.2,0.3,0.8,0.8,2c0.5,1.2,1.2,2.7,2.1,4.5c0.9,1.8,1.8,3.8,2.9,6
		c1,2.2,2.1,4.4,3.1,6.5c1,2.2,2,4.2,2.9,6.2c0.9,2,1.6,3.6,2.2,4.9c0.1,0.3,0.3,0.4,0.6,0.6c0.3,0.1,0.6,0.2,0.9,0.2v0.9h-12.6
		V87.8z M106.6,63.2l-6.2,13.3H113L106.6,63.2z"/>
	<path class="st0" d="M173.9,86.4c0,0.6,0.2,0.9,0.6,1.1c0.4,0.2,0.9,0.3,1.5,0.3v0.9h-14.1v-0.9c0.4,0,0.9,0,1.4-0.2
		c0.5-0.1,0.8-0.4,0.8-0.8s-0.6-1.3-1.7-2.5c-1.1-1.2-2.5-2.8-4.3-4.6c-1.7-1.8-3.7-3.9-5.9-6.1c-2.2-2.3-4.3-4.7-6.5-7.2l-0.2,0.2
		v19.9c0,0.6,0.2,0.9,0.6,1.1c0.4,0.2,0.8,0.3,1.4,0.3v0.9h-13l0-0.9c0.5,0,1-0.2,1.3-0.3c0.4-0.2,0.6-0.5,0.6-1.1V57.5
		c0-0.6-0.2-0.9-0.6-1.1c-0.4-0.2-0.9-0.3-1.4-0.3v-0.9h18.1v0.9c-0.4,0.1-0.7,0.2-1.1,0.3c-0.4,0.2-0.5,0.5-0.5,1.1
		c0,0.1,0.4,0.6,1.3,1.6c0.8,0.9,1.9,2.1,3.2,3.5c1.3,1.4,2.8,3,4.4,4.7c1.6,1.7,3.2,3.4,4.9,5.2l0-15c0-0.6-0.2-0.9-0.6-1.1
		c-0.4-0.2-0.9-0.3-1.5-0.3v-0.9H176v0.9c-0.6,0.1-1.1,0.2-1.5,0.3c-0.4,0.2-0.6,0.5-0.6,1.1V86.4z"/>
	<path class="st0" d="M211,87.8c0.4,0,0.8-0.1,1.3-0.2c0.5-0.2,0.8-0.5,0.8-1.1c0-0.2-0.2-0.5-0.5-1.1c-0.4-0.6-0.8-1.3-1.3-2.1
		c-0.5-0.8-1.1-1.7-1.8-2.7c-0.7-1-1.3-1.9-1.9-2.8c-0.6-0.9-1.2-1.7-1.6-2.4c-0.5-0.7-0.8-1.2-1-1.6l-6.6,6.4v6.2
		c0,0.6,0.2,0.9,0.7,1.1c0.5,0.2,0.9,0.3,1.4,0.3v0.9h-14.2v-0.9c0.5,0.1,0.9,0,1.3-0.2c0.4-0.2,0.6-0.6,0.6-1.1V57.5
		c0-0.6-0.2-0.9-0.6-1.1c-0.4-0.2-0.8-0.3-1.3-0.2v-0.9h14.2v0.9c-0.5,0.1-1,0.2-1.4,0.3c-0.5,0.2-0.7,0.5-0.7,1.1v14
		c0.8-0.7,1.7-1.4,2.7-2.4c1-0.9,2.1-1.9,3.3-2.9c1.1-1,2.3-2,3.4-2.9c1.1-1,2.1-1.9,3-2.7c0.9-0.8,1.6-1.5,2.1-2.1
		c0.5-0.6,0.8-0.9,0.8-1.1c0-0.6-0.2-0.9-0.6-1.1c-0.4-0.2-0.8-0.3-1.3-0.3v-0.9h14.8v0.9c-0.8,0.1-1.7,0.6-3,1.6
		c-1.2,1-2.5,2.1-3.9,3.3c-1.4,1.2-2.7,2.5-4.1,3.8c-1.3,1.3-2.5,2.3-3.5,3.1l12.6,18.7c0.3,0.4,0.5,0.7,0.8,0.8
		c0.3,0.2,0.6,0.3,0.9,0.3v0.9H211V87.8z"/>
	<path class="st0" d="M275,54.8c2.4,0,4.8,0.3,7.2,1c2.4,0.7,4.6,1.7,6.5,3.1c2,1.4,3.5,3.2,4.8,5.4c1.2,2.2,1.8,4.8,1.8,7.8
		c0,3-0.6,5.6-1.8,7.8c-1.2,2.2-2.8,3.9-4.8,5.3c-2,1.4-4.1,2.4-6.5,3c-2.4,0.6-4.8,0.9-7.2,0.9c-2.4,0-4.8-0.3-7.2-0.9
		c-2.4-0.6-4.6-1.6-6.5-3c-2-1.4-3.5-3.1-4.8-5.3c-1.2-2.2-1.8-4.8-1.8-7.8c0-3,0.6-5.6,1.8-7.8c1.2-2.2,2.8-4,4.8-5.4
		c2-1.4,4.1-2.4,6.5-3.1C270.2,55.1,272.6,54.8,275,54.8z M275,62.9c-1.4,0-2.8,0.2-4,0.6c-1.3,0.4-2.4,1-3.3,1.8
		c-1,0.8-1.7,1.7-2.2,2.9c-0.5,1.1-0.8,2.4-0.8,3.8c0,1.4,0.3,2.7,0.8,3.8c0.5,1.1,1.3,2.1,2.2,2.9c1,0.8,2.1,1.4,3.3,1.8
		c1.3,0.4,2.6,0.6,4,0.6c1.5,0,2.8-0.2,4.1-0.6c1.2-0.4,2.3-1,3.3-1.8s1.7-1.7,2.2-2.9c0.5-1.1,0.8-2.4,0.8-3.8
		c0-1.4-0.3-2.7-0.8-3.8c-0.5-1.1-1.3-2.1-2.2-2.9s-2.1-1.4-3.3-1.8C277.8,63.1,276.5,62.9,275,62.9z"/>
	<path class="st0" d="M303.6,57.5c0-0.6-0.2-0.9-0.6-1.1c-0.4-0.2-1-0.3-1.7-0.3v-0.9l33.1,0c0.3,0,0.6-0.1,0.9-0.3
		c0.3-0.2,0.5-0.7,0.5-1.4h0.9v10.5h-0.9c0-0.8-0.2-1.3-0.5-1.5c-0.3-0.2-0.6-0.3-0.9-0.3h-20.6l0,7.1h13.9c0.3,0,0.6-0.1,0.9-0.3
		c0.3-0.2,0.5-0.7,0.5-1.4h0.9v10.2h-0.9c0-0.8-0.2-1.3-0.5-1.5c-0.3-0.2-0.6-0.3-0.9-0.3h-13.9v10.4c0,0.6,0.2,0.9,0.6,1.1
		c0.4,0.2,0.9,0.3,1.5,0.3v0.9h-14.5v-0.9c0.6,0,1.1-0.2,1.5-0.3c0.4-0.2,0.6-0.5,0.6-1.1L303.6,57.5z"/>
	<path class="st0" d="M398.3,74.1c-0.1-0.5-0.3-0.9-0.6-1.3c-0.3-0.3-0.9-0.5-1.6-0.5h-14.1v7.1h24.4c0.4,0,0.7-0.1,0.9-0.4
		c0.2-0.3,0.4-0.9,0.5-1.9h0.9v13h-0.9c-0.1-0.7-0.3-1.1-0.5-1.2c-0.2-0.2-0.5-0.2-0.9-0.2h-38v-0.9c1-0.1,1.6-0.3,1.8-0.5
		s0.3-0.5,0.3-0.9V51c0-0.4-0.1-0.6-0.3-0.9c-0.2-0.2-0.8-0.4-1.8-0.5v-0.9h38c0.4,0,0.7-0.1,0.9-0.4c0.2-0.3,0.4-0.8,0.5-1.7h0.9
		l0,13.2h-0.9c-0.1-0.9-0.3-1.4-0.5-1.7c-0.2-0.3-0.5-0.4-0.9-0.4h-24.4V64H396c0.8,0,1.3-0.2,1.6-0.5c0.3-0.3,0.5-0.7,0.6-1.3h0.9
		v11.9H398.3z"/>
	<path class="st0" d="M451.6,55.2c0.3,0,0.6-0.1,0.9-0.3c0.3-0.2,0.5-0.7,0.5-1.4h0.9l0,11.1H453c0-0.7-0.2-1.2-0.5-1.4
		c-0.3-0.2-0.6-0.3-0.9-0.3h-10.9v23.4c0,0.6,0.2,0.9,0.6,1.1c0.4,0.2,0.8,0.3,1.2,0.3v0.9h-13.7v-0.9c0.4,0,0.8-0.2,1.2-0.3
		c0.4-0.2,0.6-0.5,0.6-1.1V63h-10.9c-0.3,0-0.6,0.1-0.9,0.3c-0.3,0.2-0.5,0.7-0.5,1.4h-0.9V53.6h0.9c0,0.7,0.2,1.2,0.5,1.4
		c0.3,0.2,0.6,0.3,0.9,0.3H451.6z"/>
	<path class="st0" d="M473.7,86.4c0,0.6,0.2,0.9,0.6,1.1c0.4,0.2,0.9,0.3,1.5,0.3v0.9h-14.4v-0.9c0.6,0,1.1-0.2,1.5-0.3
		c0.4-0.2,0.6-0.5,0.6-1.1l0-28.9c0-0.6-0.2-0.9-0.6-1.1c-0.4-0.2-0.9-0.3-1.5-0.3v-0.9l14.4,0v0.9c-0.6,0.1-1.1,0.2-1.5,0.3
		c-0.4,0.2-0.6,0.5-0.6,1.1l0,9.6h16.8v-9.6c0-0.6-0.2-0.9-0.6-1.1c-0.4-0.2-0.9-0.3-1.5-0.3v-0.9h14.5v0.9
		c-0.6,0.1-1.1,0.2-1.5,0.3c-0.4,0.2-0.6,0.5-0.6,1.1v28.9c0,0.6,0.2,0.9,0.6,1.1c0.4,0.2,0.9,0.3,1.5,0.3v0.9h-14.5v-0.9
		c0.6,0,1.1-0.2,1.5-0.3c0.4-0.2,0.6-0.5,0.6-1.1V74.9h-16.8V86.4z"/>
	<path class="st0" d="M540.5,87.8c0.2,0,0.4,0,0.6-0.1c0.3-0.1,0.4-0.3,0.4-0.6c0-0.2-0.1-0.5-0.3-1c-0.2-0.4-0.4-0.9-0.6-1.4
		c-0.2-0.5-0.5-1-0.7-1.5c-0.3-0.5-0.5-0.9-0.6-1.3h-17.6c-0.1,0.4-0.3,0.8-0.5,1.3c-0.2,0.5-0.5,1-0.7,1.5c-0.3,0.5-0.5,1-0.7,1.4
		c-0.2,0.4-0.3,0.7-0.3,1c0,0.4,0.1,0.6,0.4,0.6c0.3,0.1,0.5,0.1,0.6,0.1v0.9H509v-0.9c0.3,0,0.6-0.1,0.9-0.2
		c0.3-0.1,0.5-0.3,0.6-0.6c1.5-3.5,3.1-7.1,4.6-10.5c1.6-3.5,3-6.6,4.2-9.4c1.2-2.8,2.3-5.1,3.1-7c0.8-1.8,1.2-2.9,1.2-3.2
		c0-0.5-0.3-0.7-1-0.8v-0.9h15.9v0.9c-0.7,0.1-1,0.3-1,0.8c0,0.2,0.3,0.8,0.8,2c0.5,1.2,1.2,2.7,2.1,4.5c0.9,1.8,1.8,3.8,2.9,6
		c1,2.2,2.1,4.4,3.1,6.5c1,2.2,2,4.2,2.9,6.2c0.9,2,1.6,3.6,2.2,4.9c0.1,0.3,0.3,0.4,0.6,0.6c0.3,0.1,0.6,0.2,0.9,0.2v0.9h-12.6
		V87.8z M530.3,63.2L524,76.5h12.6L530.3,63.2z"/>
	<path class="st0" d="M599.1,86.4c0,0.6,0.2,0.9,0.6,1.1c0.4,0.2,0.9,0.3,1.5,0.3v0.9h-14.1v-0.9c0.4,0,0.9,0,1.4-0.2
		c0.5-0.1,0.8-0.4,0.8-0.8c0-0.5-0.6-1.3-1.7-2.5c-1.1-1.2-2.5-2.8-4.3-4.6c-1.7-1.8-3.7-3.9-5.9-6.1c-2.2-2.3-4.3-4.7-6.5-7.2
		l-0.2,0.2v19.9c0,0.6,0.2,0.9,0.6,1.1c0.4,0.2,0.8,0.3,1.4,0.3v0.9h-13v-0.9c0.5,0,0.9-0.2,1.3-0.3c0.4-0.2,0.6-0.5,0.6-1.1V57.5
		c0-0.6-0.2-0.9-0.6-1.1c-0.4-0.2-0.9-0.3-1.4-0.3v-0.9h18.1v0.9c-0.4,0.1-0.7,0.2-1.1,0.3c-0.4,0.2-0.5,0.5-0.5,1.1
		c0,0.1,0.4,0.6,1.3,1.6c0.8,0.9,1.9,2.1,3.2,3.5c1.3,1.4,2.8,3,4.4,4.7c1.6,1.7,3.2,3.4,4.9,5.2v-15c0-0.6-0.2-0.9-0.6-1.1
		c-0.4-0.2-0.9-0.3-1.5-0.3v-0.9h13.4v0.9c-0.6,0.1-1.1,0.2-1.5,0.3c-0.4,0.2-0.6,0.5-0.6,1.1V86.4z"/>
</g>
<g>
	<linearGradient id="SVGID_1_" gradientUnits="userSpaceOnUse" x1="641.0871" y1="114.2699" x2="722.8193" y2="31.9041">
		<stop  offset="0" style="stop-color:#006838"/>
		<stop  offset="1" style="stop-color:#8DC63F"/>
	</linearGradient>
	<path class="st1" d="M699.7,56.9c-0.6-0.5-1.2-1-1.8-1.6c-0.2,0.5,0,1.1,0.3,1.3C698.6,57.1,699.1,57,699.7,56.9z"/>
	
		<linearGradient id="SVGID_00000032628593401474594160000007682113338626234015_" gradientUnits="userSpaceOnUse" x1="637.9597" y1="111.1666" x2="719.6919" y2="28.8008">
		<stop  offset="0" style="stop-color:#006838"/>
		<stop  offset="1" style="stop-color:#8DC63F"/>
	</linearGradient>
	<path style="fill:url(#SVGID_00000032628593401474594160000007682113338626234015_);" d="M680.4,15.3c-29.3,0-53.1,23.8-53.1,53.1
		s23.8,53.1,53.1,53.1c29.3,0,53.1-23.8,53.1-53.1S709.7,15.3,680.4,15.3z M692.8,49.1c0.4,0.3,0.7,0.7,1.1,1c1.3,1.2,2.9,2,4.5,2.8
		c0.6,0.3,1.3,0.6,1.9,1c1.4,0.9,1.7,1.9,1.2,3.4c0,0.1,0,0.2-0.1,0.2c0.7,0.5,1.3,0.9,1.9,1.4c0.5,0.4,0.9,1,0.9,1.6
		c0.1,0.9-0.4,1.5-1.1,2.1c0,0,0-0.1,0-0.1c0.2-0.5,0-0.9-0.4-1.1c-0.5-0.3-1.1-0.4-1.6-0.4c-0.7-0.1-1.4-0.1-2.1-0.1
		c-0.1,0-0.3,0.1-0.4,0.1c-1,0.7-1.3,1.7-0.7,2.8c0.3,0.5,0.6,0.9,1,1.3c1.1,0.9,2,1.8,2.6,3.1c0.5,1.1,0.7,2.3,0.3,3.6
		c0,0.1,0,0.1-0.1,0.2c0,0,0,0,0,0.1c-0.5-0.4-0.9-0.9-1.4-1.4c0.8,3.4-0.4,6.3-2.2,9.1c0-0.2,0-0.5,0-0.7c-0.1-1.5-0.8-2.7-1.7-3.9
		c-1.2-1.6-2.7-2.9-4.3-4.2c-1.5-1.2-3-2.4-4.5-3.6c-0.5-0.4-1-0.9-1.4-1.4c-1-1.3-1.1-2.7-0.6-4.2c0.4-1,0.9-1.9,1.6-2.7
		c0.1-0.1,0.1-0.1,0.1-0.2c-0.6,0.3-1.2,0.6-1.9,1c0.4-1.2,1.1-2.1,1.9-3c0.8-0.8,1.8-1.5,2.8-2.1c-0.9,0.1-1.9,0.2-2.8,0.3
		c1.7-1.8,3.9-2.4,6.4-2.1C692.6,51.9,692.4,50.6,692.8,49.1z M693.4,97.3c0.7-0.7,1.4-1.2,2.2-1.7c-1.7-2.6-3.5-5-4.2-8.1
		c-0.4,0.2-0.7,0.5-1.1,0.8c-0.1-0.4-0.2-0.7-0.3-1.1c-0.3-1.6-0.5-3.2-0.5-4.9c0-1.4-0.1-2.7-0.4-4c-0.1-0.4-0.2-0.8-0.6-1.2
		c0,0.1,0,0.2,0,0.3c0,1.4,0.1,2.7,0.1,4.1c0,0.5,0,0.9-0.1,1.4c0,0.1,0,0.2-0.1,0.2c-0.5,0.3-0.9,0.5-1.3,0.7
		c-0.2-0.7-0.4-1.3-0.6-1.9c-0.4-1-1.1-1.9-2.1-2.4c-0.9-0.4-1.7-0.4-2.6-0.2c0.6,0.3,1.1,0.6,1.6,0.9c1.1,0.8,1.9,1.8,2.1,3.2
		c0.2,1.1,0,2.1-0.4,3.1c-0.9,2.3-2.5,3.9-4.6,5.1c-0.6,0.3-1.1,0.5-1.7,0.8c0.3,0,0.6,0,0.9,0c2-0.1,4-0.1,6,0.2
		c1.3,0.2,2.6,0.4,3.7,1.1c0.8,0.4,1.4,1,1.6,1.9c0.1,0.6,0,1.2-0.2,1.7l-21.3,0c0,0,0,0,0,0c-1.3-1.5-2.1-3.3-2.5-5.2
		c0,0,0-0.1,0-0.1c0,0,0,0-0.1-0.1c-0.1,0.1-0.1,0.2-0.1,0.2c-0.6,1-1.3,2-2,2.9c-1,1.1-2.2,1.8-3.7,2.3c0,0-0.1,0-0.1,0l-5.7,0
		c-1.1-0.4-2-1.1-2.7-2.1c-0.7-1.1-0.9-2.4-0.8-3.6c0.2-1.7,0.8-3.2,1.7-4.5c0.6-0.9,1.5-1.6,2.4-2.2c1.6-1,3.2-1.9,4.9-2.9
		c1.5-0.9,3-1.7,4.3-2.8c0.8-0.7,1.6-1.4,2-2.4c0.5-1.3,0.1-2.8-1-3.7c-1.1-0.9-2.3-1.2-3.7-1.1c-3.5,0.4-6.1,2.1-8.1,4.9
		c-0.4,0.6-0.7,1.3-1,2c0,0.1,0,0.2,0,0.3c1.3,1.1,1.5,2.4,0.9,3.9c-0.3,0.8-0.7,1.5-1.2,2.1c0,0,0,0-0.1,0.1c0-0.3,0-0.6,0-0.9
		c-0.5,0-0.7,0.3-0.9,0.6c-0.3,0.5-0.4,1.1-0.5,1.8c0,0.4-0.1,0.7-0.1,1.1c-0.2-0.6-0.3-1.1-0.5-1.7c-0.4-1.5-0.7-3-0.7-4.6
		c0-0.7,0.1-1.4,0.5-2c0.2-0.4,0.5-0.6,1-0.7c0.1,0,0.2-0.1,0.2-0.2c1.1-3.7,3.5-6.1,7-7.6c1.5-0.7,3.1-1,4.8-0.9
		c2.5,0.2,4.3,1.3,5.3,3.6c0.3,0.8,0.6,1.6,0.7,2.4c0.1,1.5-0.5,2.7-1.4,3.8c-1,1.1-2.2,2-3.5,2.7c-1.6,0.9-3.2,1.7-4.8,2.6
		c-1.1,0.6-2.1,1.2-3,1.9c-1.5,1.3-2.3,2.9-2.4,4.8c-0.1,1.7,0.9,2.9,2.6,3.1c1.4,0.2,2.8-0.1,4.1-0.6c1.3-0.5,2.3-1.5,3-2.7
		c0.8-1.4,1.6-2.8,2.3-4.2c0.9-1.6,1.7-3.1,3.1-4.3c1-0.8,2-1.6,3-2.3c1.8-1.3,3.7-2.5,5.5-3.8c0.8-0.6,1.4-1.4,1.7-2.3
		c0.4-1.1,0.1-2-0.9-2.7c-0.9-0.6-1.8-1-2.9-1.2c-1.4-0.3-2.7-0.5-4.1-0.8c-3.4-0.7-6.6-1.6-9.6-3.3c-0.8-0.4-1.5-1-2.2-1.4
		c-0.1-0.1-0.2-0.2-0.3-0.3c4.2,0.4,8.3,0.8,12.5,1.2c-6.9-1.6-13.4-4.2-18.8-9c0,0,0-0.1,0-0.1c4.4,0.8,8.7,1.7,13.1,2.5
		c0,0,0,0,0-0.1c-0.5-0.1-0.9-0.3-1.4-0.4c-3.4-1.1-6.6-2.3-9.8-4c-1.8-1-3.6-2.1-5.1-3.6c-0.5-0.5-0.9-1-1.3-1.5
		c-0.1-0.1-0.1-0.2-0.2-0.4c4.9,0.8,9.7,1.5,14.6,2.3c0,0,0,0,0,0c-0.8-0.2-1.6-0.4-2.4-0.6c-5-1.3-9.8-3.2-14.1-6.1
		c-1.9-1.3-3.7-2.7-5.3-4.4c-0.1-0.1-0.2-0.2-0.3-0.3c0,0,0,0,0-0.1c0.4,0.1,0.7,0.1,1.1,0.2c4.8,0.9,9.6,1.8,14.5,2.8
		c4.8,0.9,9.6,1.8,14.4,2.7c3,0.6,5.9,1.1,8.9,1.7c1.8,0.4,3.7,0.8,5.4,1.5c0.9,0.4,1.8,0.8,2.5,1.5c0.4,0.4,0.7,0.8,0.8,1.4
		c0.1,0.2,0,0.3-0.2,0.3c-1.3,0.7-2.6,1.4-3.8,2.3c-1.2,1-2.3,2.2-2.8,3.7c-0.5,1.4-0.4,2.8,0.1,4.2c0.6,1.6,1.6,2.8,2.8,4
		c1.1,1.1,2.4,2,3.6,2.9c2.9,2.2,5.5,4.7,7.4,7.9c1.1,1.9,1.7,4,1.9,6.3c0.2,2.6,0.4,5.2,0.7,7.9c0.1,1,0.2,2,0.7,2.8
		c0.1,0.2,0.3,0.4,0.4,0.7c0.3-0.1,0.7-0.3,1-0.4c0.9-0.4,1.9-0.6,2.9-0.6c0.3,0,0.6,0,0.9,0.1c0.8,0.3,1.3,1.7,1.4,2.7L693.4,97.3z
		 M716.1,72.5c-1.1,0.7-2,1.7-2.7,2.8c-0.8,1.1-1.5,2.3-2.1,3.5c0,0.1-0.1,0.1-0.1,0.2c-0.5-0.8-0.8-1.5-0.8-2.4
		c0-0.9,0.3-1.6,0.9-2.3c0,0,0-0.1,0-0.1c-0.6,0.2-1.1,0.3-1.7,0.5c-1.7,0.7-3.3,1.6-4.8,2.6c-1.1,0.7-2.1,1.5-3.1,2.2
		c0,0-0.1,0.1-0.2,0.1c1-2.1,1.4-4.3,1.3-6.7c0.5-0.1,0.9-0.1,1.4-0.2c2.6-0.4,5.2-0.8,7.8-1.2c0.1,0,0.2,0,0.3,0
		c0.7,0,1.3-0.3,1.9-0.8c0.7-0.6,1.5-1,2.4-1.2c1.3-0.3,2.4,0.2,3.1,1.3c0.2,0.4,0.4,0.8,0.6,1.2c-0.6-0.1-1.1-0.3-1.6-0.4
		C717.6,71.6,716.8,72,716.1,72.5z"/>
</g>
<ellipse transform="matrix(0.7071 -0.7071 0.7071 0.7071 435.2249 594.905)" class="st3" cx="935.7" cy="-227.9" rx="99.3" ry="99.3"/>
<g>
	<path class="st4" d="M948.9-252.8c1.7-0.2,3.5-0.4,5.2-0.5c-1.9,1.1-3.7,2.4-5.2,3.9c-1.6,1.6-2.9,3.3-3.6,5.5
		c1.3-0.7,2.4-1.3,3.5-1.9c0,0.2-0.1,0.3-0.2,0.4c-1.3,1.5-2.4,3.1-3,5c-1,2.8-0.9,5.5,1.1,7.9c0.8,1,1.7,1.8,2.7,2.6
		c2.8,2.3,5.6,4.5,8.4,6.7c2.9,2.3,5.8,4.8,8,7.8c1.6,2.2,2.9,4.5,3.1,7.3c0,0.5,0,0.9,0.1,1.4c3.5-5.1,5.6-10.6,4.2-17
		c0.9,0.9,1.8,1.7,2.6,2.6c0,0,0.1-0.1,0.1-0.1c0-0.1,0.1-0.3,0.1-0.4c0.7-2.3,0.4-4.5-0.5-6.6c-1.1-2.4-2.8-4.3-4.9-5.9
		c-0.8-0.6-1.5-1.4-2-2.4c-1.1-2.1-0.6-3.9,1.3-5.3c0.2-0.1,0.5-0.2,0.7-0.2c1.3,0,2.6,0,3.9,0.1c1,0.1,2.1,0.3,3,0.8
		c0.8,0.5,1.1,1.2,0.8,2.1c0,0.1-0.1,0.2-0.1,0.3c1.2-1,2.2-2.2,2.1-3.9c-0.1-1.3-0.7-2.3-1.7-3.1c-1.1-0.9-2.3-1.7-3.6-2.6
		c0-0.1,0.1-0.2,0.1-0.4c0.9-2.9,0.3-4.7-2.3-6.4c-1.1-0.7-2.4-1.3-3.6-1.9c-3-1.5-5.8-3-8.3-5.2c-0.7-0.6-1.3-1.2-2-1.8
		c-0.8,2.8-0.4,5.2,1.9,7.2C956.1-257.3,952.1-256.2,948.9-252.8z M968.4-252.3c1.1,1,2.2,1.9,3.4,2.9c-1.1,0.2-2.1,0.3-2.9-0.4
		C968.3-250.3,968.1-251.4,968.4-252.3z"/>
	<path class="st4" d="M980.6-178.9c-0.5-0.2-1.1-0.2-1.6-0.3c-1.9,0-3.7,0.5-5.5,1.1c-0.6,0.2-1.2,0.5-1.9,0.8
		c-0.3-0.4-0.5-0.8-0.7-1.2c-0.9-1.7-1.1-3.5-1.3-5.3c-0.5-4.9-0.9-9.8-1.3-14.7c-0.3-4.2-1.5-8.1-3.6-11.7
		c-3.5-6-8.3-10.7-13.8-14.8c-2.3-1.7-4.7-3.3-6.8-5.4c-2.2-2.2-4.1-4.6-5.2-7.5c-1-2.6-1.2-5.2-0.2-7.9c1-2.9,3-5,5.3-6.9
		c2.2-1.8,4.6-3.2,7.1-4.4c0.3-0.2,0.4-0.3,0.3-0.6c-0.3-1-0.8-1.8-1.5-2.5c-1.3-1.3-2.9-2.1-4.6-2.8c-3.3-1.3-6.7-2.2-10.1-2.9
		c-5.5-1.1-11.1-2.1-16.7-3.2c-9-1.7-17.9-3.4-26.9-5.1c-9-1.7-18-3.4-27.1-5.2c-0.7-0.1-1.3-0.2-2.1-0.4c0,0.1,0.1,0.2,0.1,0.2
		c0.2,0.2,0.3,0.4,0.5,0.6c2.9,3.2,6.3,5.9,9.9,8.3c8.1,5.4,17,9.1,26.4,11.4c1.5,0.4,3,0.7,4.6,1.1c0,0,0,0.1,0,0.1
		c-9-1.4-18.1-2.9-27.2-4.3c0.2,0.3,0.3,0.6,0.4,0.8c0.8,1,1.5,2,2.4,2.9c2.8,2.8,6.1,4.8,9.5,6.7c5.8,3.1,12,5.4,18.3,7.4
		c0.9,0.3,1.7,0.5,2.6,0.8c0,0,0,0.1,0,0.1c-8.2-1.6-16.3-3.1-24.5-4.7c0,0.1,0,0.1-0.1,0.2c10.1,9,22.2,13.8,35.2,16.7
		c-7.8-0.8-15.6-1.5-23.4-2.3c0.1,0.2,0.3,0.4,0.5,0.5c1.4,0.9,2.7,1.9,4.1,2.7c5.6,3.2,11.7,5,18,6.2c2.6,0.5,5.1,0.9,7.7,1.4
		c1.9,0.4,3.8,1.1,5.4,2.3c1.8,1.3,2.4,3.1,1.6,5.1c-0.6,1.7-1.7,3.2-3.2,4.3c-3.4,2.4-6.9,4.7-10.3,7.1c-1.9,1.4-3.8,2.9-5.6,4.4
		c-2.6,2.2-4.2,5.1-5.8,8c-1.5,2.6-2.8,5.3-4.4,7.9c-1.3,2.2-3.1,4-5.6,5c-2.5,0.9-5,1.6-7.7,1.2c-3.2-0.5-5.1-2.6-4.9-5.8
		c0.3-3.6,1.7-6.7,4.5-9c1.7-1.5,3.7-2.6,5.6-3.6c3-1.6,6-3.2,9-4.9c2.4-1.4,4.7-3,6.6-5.1c1.8-2,2.8-4.3,2.6-7.1
		c-0.1-1.6-0.6-3.1-1.2-4.5c-1.9-4.3-5.2-6.5-9.9-6.8c-3.1-0.2-6.1,0.4-8.9,1.6c-6.4,2.8-11.1,7.4-13.1,14.3c0,0.2-0.2,0.3-0.4,0.4
		c-0.8,0.2-1.4,0.7-1.8,1.3c-0.7,1.1-0.9,2.4-0.9,3.7c0,3,0.6,5.8,1.3,8.6c0.3,1.1,0.6,2.1,0.9,3.1c0.1-0.7,0.2-1.4,0.2-2.1
		c0.1-1.1,0.3-2.3,0.8-3.3c0.3-0.6,0.8-1.2,1.7-1.2c0,0.5,0,1,0,1.6c0.1-0.1,0.2-0.1,0.2-0.2c0.9-1.2,1.7-2.5,2.3-4
		c1-2.8,0.8-5.3-1.7-7.3c-0.1-0.1-0.2-0.4-0.1-0.5c0.6-1.2,1.1-2.6,1.9-3.7c3.7-5.3,8.8-8.4,15.2-9.1c2.5-0.3,4.9,0.3,6.9,2
		c2,1.8,2.8,4.6,1.8,7c-0.8,1.9-2.2,3.2-3.7,4.5c-2.5,2-5.3,3.6-8,5.2c-3.1,1.8-6.1,3.6-9.1,5.4c-1.7,1.1-3.3,2.3-4.4,4
		c-1.7,2.6-2.9,5.4-3.2,8.5c-0.3,2.4,0.1,4.7,1.5,6.8c1.3,1.9,3,3.2,5,3.9l10.6,0c0.1,0,0.2,0,0.3-0.1c2.7-0.8,5-2.1,6.9-4.2
		c1.5-1.7,2.7-3.5,3.8-5.5c0.1-0.1,0.2-0.3,0.3-0.4c0.1,0.1,0.1,0.1,0.1,0.1c0,0.1,0,0.2,0.1,0.2c0.8,3.6,2.4,6.8,4.8,9.7
		c0,0,0,0,0.1,0.1h39.9c0.4-1,0.6-2.1,0.3-3.2c-0.4-1.7-1.5-2.8-2.9-3.5c-2.2-1.2-4.5-1.7-6.9-2c-3.8-0.5-7.5-0.5-11.3-0.3
		c-0.6,0-1.1,0.1-1.7,0.1c1.1-0.5,2.2-0.9,3.2-1.5c4-2.1,7-5.2,8.7-9.5c0.7-1.9,1.1-3.8,0.8-5.8c-0.4-2.6-1.9-4.5-4-6
		c-1-0.7-2-1.2-3.1-1.8c1.6-0.4,3.3-0.4,4.9,0.4c2,0.9,3.2,2.5,4,4.5c0.5,1.2,0.8,2.4,1.1,3.6c0.8-0.4,1.7-0.9,2.5-1.4
		c0.1-0.1,0.2-0.2,0.2-0.4c0.1-0.9,0.2-1.8,0.1-2.7c-0.1-2.5-0.2-5.1-0.2-7.6c0-0.2,0-0.3,0-0.6c0.7,0.7,0.9,1.4,1.1,2.2
		c0.6,2.5,0.8,5,0.8,7.5c0,3.1,0.3,6.1,0.9,9.2c0.1,0.6,0.3,1.3,0.5,2c0.8-0.5,1.5-1,2.1-1.5c1.3,5.8,4.7,10.3,7.8,15.1
		c-1.4,0.9-2.8,1.9-4,3.2h23.1C983-175.7,982.1-178.5,980.6-178.9z"/>
	<path class="st4" d="M1003.1-225.6c-1.7,0.4-3.2,1.2-4.6,2.3c-1.1,0.9-2.2,1.5-3.5,1.5c-0.2,0-0.4,0-0.5,0.1
		c-4.8,0.7-9.7,1.5-14.5,2.2c-0.8,0.1-1.7,0.3-2.5,0.4c0.2,4.4-0.5,8.6-2.4,12.5c0.1,0,0.2-0.1,0.3-0.2c1.9-1.4,3.8-2.8,5.8-4.2
		c2.8-1.9,5.7-3.7,8.9-4.9c1-0.4,2.1-0.7,3.2-1c0,0,0.1,0.1,0.1,0.1c-1.1,1.2-1.7,2.6-1.6,4.3c0.1,1.6,0.6,3.1,1.5,4.5
		c0.1-0.2,0.2-0.3,0.2-0.4c1.1-2.3,2.4-4.5,4-6.6c1.5-2,3.1-3.8,5.1-5.2c1.4-0.9,2.9-1.6,4.6-1.4c1,0.1,1.9,0.4,3,0.7
		c-0.4-0.7-0.7-1.5-1.2-2.2C1007.5-225.2,1005.5-226.1,1003.1-225.6z"/>
</g>
</svg>
