<?xml version="1.0" encoding="utf-8"?>
<!-- Generator: Adobe Illustrator 26.0.1, SVG Export Plug-In . SVG Version: 6.00 Build 0)  -->
<svg version="1.1" id="Layer_1" xmlns="http://www.w3.org/2000/svg" xmlns:xlink="http://www.w3.org/1999/xlink" x="0px" y="0px"
	 viewBox="0 0 772 133.3" style="enable-background:new 0 0 772 133.3;" xml:space="preserve">
<style type="text/css">
	.st0{fill:#006838;}
	.st1{fill:url(#SVGID_1_);}
	.st2{fill:url(#SVGID_00000175315230307496670060000011701416132852734596_);}
	.st3{fill:#F15A29;}
	.st4{fill:#FFFFFF;}
</style>
<g>
	<path class="st0" d="M68.5,51c0-0.4-0.1-0.6-0.3-0.9c-0.2-0.2-0.8-0.4-1.8-0.5v-0.9h29c2.1,0,4,0.2,5.7,0.6c1.7,0.4,3.2,1,4.5,1.9
		c1.3,0.8,2.3,1.9,3,3.3c0.7,1.3,1.1,3,1.1,4.8c0,2.3-0.7,4.1-2.1,5.5s-3.1,2.3-5.2,2.8v0.2c2.6,0.7,4.7,1.8,6.4,3.3
		c1.6,1.5,2.5,3.6,2.5,6.5c0,1.5-0.3,3-0.9,4.3c-0.6,1.4-1.5,2.6-2.7,3.6s-2.8,1.8-4.8,2.4s-4.3,0.9-7,0.9H66.3v-0.9
		c1-0.1,1.6-0.3,1.8-0.5s0.3-0.5,0.3-0.9L68.5,51z M90.2,63.8c1.6,0,3,0,4-0.1c1.1-0.1,1.9-0.2,2.5-0.5s1-0.6,1.3-1.1
		s0.4-1.1,0.4-1.8c0-0.8-0.1-1.4-0.4-1.8c-0.3-0.5-0.7-0.8-1.3-1.1c-0.6-0.3-1.4-0.4-2.5-0.5s-2.4-0.1-4-0.1H79.9v7
		C79.9,63.8,90.2,63.8,90.2,63.8z M92.8,80.6c2.7,0,4.7-0.3,5.8-1s1.7-1.9,1.7-3.5c0-1.7-0.6-2.9-1.7-3.5c-1.1-0.7-3-1-5.8-1H79.9
		v9.1L92.8,80.6L92.8,80.6z"/>
	<path class="st0" d="M146.8,87.8c0.2,0,0.4,0,0.6-0.1c0.3-0.1,0.4-0.3,0.4-0.6c0-0.2-0.1-0.5-0.3-1c-0.2-0.4-0.4-0.9-0.6-1.4
		c-0.2-0.5-0.5-1-0.7-1.5c-0.3-0.5-0.5-0.9-0.6-1.3h-17.7c-0.1,0.4-0.3,0.8-0.5,1.3s-0.5,1-0.7,1.5c-0.3,0.5-0.5,1-0.7,1.4
		s-0.3,0.7-0.3,1c0,0.4,0.1,0.6,0.4,0.6c0.3,0.1,0.5,0.1,0.6,0.1v0.9h-11.4v-0.9c0.3,0,0.6-0.1,0.9-0.2s0.5-0.3,0.6-0.6
		c1.5-3.5,3.1-7.1,4.6-10.5c1.6-3.5,3-6.6,4.2-9.4s2.3-5.1,3.1-7c0.8-1.8,1.2-2.9,1.2-3.2c0-0.5-0.3-0.7-1-0.8v-0.9h15.9v0.9
		c-0.7,0.1-1,0.3-1,0.8c0,0.2,0.3,0.8,0.8,2s1.2,2.7,2.1,4.5s1.8,3.8,2.9,6c1,2.2,2.1,4.4,3.1,6.5c1,2.2,2,4.2,2.9,6.2
		c0.9,2,1.6,3.6,2.2,4.9c0.1,0.3,0.3,0.4,0.6,0.6c0.3,0.1,0.6,0.2,0.9,0.2v0.9h-12.6v-0.9H146.8z M136.6,63.2l-6.2,13.3H143
		L136.6,63.2z"/>
	<path class="st0" d="M203.9,86.4c0,0.6,0.2,0.9,0.6,1.1c0.4,0.2,0.9,0.3,1.5,0.3v0.9h-14.1v-0.9c0.4,0,0.9,0,1.4-0.2
		c0.5-0.1,0.8-0.4,0.8-0.8s-0.6-1.3-1.7-2.5c-1.1-1.2-2.5-2.8-4.3-4.6c-1.7-1.8-3.7-3.9-5.9-6.1c-2.2-2.3-4.3-4.7-6.5-7.2l-0.2,0.2
		v19.9c0,0.6,0.2,0.9,0.6,1.1c0.4,0.2,0.8,0.3,1.4,0.3v0.9h-13v-0.9c0.5,0,1-0.2,1.3-0.3c0.4-0.2,0.6-0.5,0.6-1.1v-29
		c0-0.6-0.2-0.9-0.6-1.1c-0.4-0.2-0.9-0.3-1.4-0.3v-0.9h18.1v0.9c-0.4,0.1-0.7,0.2-1.1,0.3c-0.4,0.2-0.5,0.5-0.5,1.1
		c0,0.1,0.4,0.6,1.3,1.6c0.8,0.9,1.9,2.1,3.2,3.5s2.8,3,4.4,4.7c1.6,1.7,3.2,3.4,4.9,5.2v-15c0-0.6-0.2-0.9-0.6-1.1
		c-0.4-0.2-0.9-0.3-1.5-0.3v-0.9H206v0.9c-0.6,0.1-1.1,0.2-1.5,0.3c-0.4,0.2-0.6,0.5-0.6,1.1V86.4z"/>
	<path class="st0" d="M241,87.8c0.4,0,0.8-0.1,1.3-0.2c0.5-0.2,0.8-0.5,0.8-1.1c0-0.2-0.2-0.5-0.5-1.1c-0.4-0.6-0.8-1.3-1.3-2.1
		c-0.5-0.8-1.1-1.7-1.8-2.7s-1.3-1.9-1.9-2.8c-0.6-0.9-1.2-1.7-1.6-2.4c-0.5-0.7-0.8-1.2-1-1.6l-6.6,6.4v6.2c0,0.6,0.2,0.9,0.7,1.1
		s0.9,0.3,1.4,0.3v0.9h-14.2v-0.9c0.5,0.1,0.9,0,1.3-0.2c0.4-0.2,0.6-0.6,0.6-1.1v-29c0-0.6-0.2-0.9-0.6-1.1
		c-0.4-0.2-0.8-0.3-1.3-0.2v-0.9h14.2v0.9c-0.5,0.1-1,0.2-1.4,0.3c-0.5,0.2-0.7,0.5-0.7,1.1v14c0.8-0.7,1.7-1.4,2.7-2.4
		c1-0.9,2.1-1.9,3.3-2.9c1.1-1,2.3-2,3.4-2.9c1.1-1,2.1-1.9,3-2.7s1.6-1.5,2.1-2.1s0.8-0.9,0.8-1.1c0-0.6-0.2-0.9-0.6-1.1
		c-0.4-0.2-0.8-0.3-1.3-0.3v-0.9h14.8v0.9c-0.8,0.1-1.7,0.6-3,1.6c-1.2,1-2.5,2.1-3.9,3.3s-2.7,2.5-4.1,3.8
		c-1.3,1.3-2.5,2.3-3.5,3.1l12.6,18.7c0.3,0.4,0.5,0.7,0.8,0.8c0.3,0.2,0.6,0.3,0.9,0.3v0.9H241V87.8z"/>
	<path class="st0" d="M305,54.8c2.4,0,4.8,0.3,7.2,1c2.4,0.7,4.6,1.7,6.5,3.1c2,1.4,3.5,3.2,4.8,5.4c1.2,2.2,1.8,4.8,1.8,7.8
		s-0.6,5.6-1.8,7.8c-1.2,2.2-2.8,3.9-4.8,5.3s-4.1,2.4-6.5,3s-4.8,0.9-7.2,0.9c-2.4,0-4.8-0.3-7.2-0.9c-2.4-0.6-4.6-1.6-6.5-3
		c-2-1.4-3.5-3.1-4.8-5.3c-1.2-2.2-1.8-4.8-1.8-7.8s0.6-5.6,1.8-7.8c1.2-2.2,2.8-4,4.8-5.4s4.1-2.4,6.5-3.1
		C300.2,55.1,302.6,54.8,305,54.8z M305,62.9c-1.4,0-2.8,0.2-4,0.6c-1.3,0.4-2.4,1-3.3,1.8c-1,0.8-1.7,1.7-2.2,2.9
		c-0.5,1.1-0.8,2.4-0.8,3.8s0.3,2.7,0.8,3.8c0.5,1.1,1.3,2.1,2.2,2.9c1,0.8,2.1,1.4,3.3,1.8c1.3,0.4,2.6,0.6,4,0.6
		c1.5,0,2.8-0.2,4.1-0.6c1.2-0.4,2.3-1,3.3-1.8s1.7-1.7,2.2-2.9c0.5-1.1,0.8-2.4,0.8-3.8s-0.3-2.7-0.8-3.8c-0.5-1.1-1.3-2.1-2.2-2.9
		s-2.1-1.4-3.3-1.8C307.8,63.1,306.5,62.9,305,62.9z"/>
	<path class="st0" d="M333.6,57.5c0-0.6-0.2-0.9-0.6-1.1c-0.4-0.2-1-0.3-1.7-0.3v-0.9h33.1c0.3,0,0.6-0.1,0.9-0.3s0.5-0.7,0.5-1.4
		h0.9V64h-0.9c0-0.8-0.2-1.3-0.5-1.5s-0.6-0.3-0.9-0.3h-20.6v7.1h13.9c0.3,0,0.6-0.1,0.9-0.3c0.3-0.2,0.5-0.7,0.5-1.4h0.9v10.2h-0.9
		c0-0.8-0.2-1.3-0.5-1.5S358,76,357.7,76h-13.9v10.4c0,0.6,0.2,0.9,0.6,1.1s0.9,0.3,1.5,0.3v0.9h-14.5v-0.9c0.6,0,1.1-0.2,1.5-0.3
		c0.4-0.2,0.6-0.5,0.6-1.1L333.6,57.5z"/>
	<path class="st0" d="M428.3,74.1c-0.1-0.5-0.3-0.9-0.6-1.3c-0.3-0.3-0.9-0.5-1.6-0.5H412v7.1h24.4c0.4,0,0.7-0.1,0.9-0.4
		c0.2-0.3,0.4-0.9,0.5-1.9h0.9v13h-0.9c-0.1-0.7-0.3-1.1-0.5-1.2c-0.2-0.2-0.5-0.2-0.9-0.2h-38v-0.9c1-0.1,1.6-0.3,1.8-0.5
		s0.3-0.5,0.3-0.9V51c0-0.4-0.1-0.6-0.3-0.9c-0.2-0.2-0.8-0.4-1.8-0.5v-0.9h38c0.4,0,0.7-0.1,0.9-0.4c0.2-0.3,0.4-0.8,0.5-1.7h0.9
		v13.2h-0.9c-0.1-0.9-0.3-1.4-0.5-1.7s-0.5-0.4-0.9-0.4H412V64h14c0.8,0,1.3-0.2,1.6-0.5c0.3-0.3,0.5-0.7,0.6-1.3h0.9v11.9H428.3z"
		/>
	<path class="st0" d="M481.6,55.2c0.3,0,0.6-0.1,0.9-0.3s0.5-0.7,0.5-1.4h0.9v11.1H483c0-0.7-0.2-1.2-0.5-1.4s-0.6-0.3-0.9-0.3
		h-10.9v23.4c0,0.6,0.2,0.9,0.6,1.1s0.8,0.3,1.2,0.3v0.9h-13.7v-0.9c0.4,0,0.8-0.2,1.2-0.3c0.4-0.2,0.6-0.5,0.6-1.1V63h-10.9
		c-0.3,0-0.6,0.1-0.9,0.3s-0.5,0.7-0.5,1.4h-0.9V53.6h0.9c0,0.7,0.2,1.2,0.5,1.4s0.6,0.3,0.9,0.3L481.6,55.2L481.6,55.2z"/>
	<path class="st0" d="M503.7,86.4c0,0.6,0.2,0.9,0.6,1.1s0.9,0.3,1.5,0.3v0.9h-14.4v-0.9c0.6,0,1.1-0.2,1.5-0.3
		c0.4-0.2,0.6-0.5,0.6-1.1V57.5c0-0.6-0.2-0.9-0.6-1.1c-0.4-0.2-0.9-0.3-1.5-0.3v-0.9h14.4v0.9c-0.6,0.1-1.1,0.2-1.5,0.3
		c-0.4,0.2-0.6,0.5-0.6,1.1v9.6h16.8v-9.6c0-0.6-0.2-0.9-0.6-1.1c-0.4-0.2-0.9-0.3-1.5-0.3v-0.9h14.5v0.9c-0.6,0.1-1.1,0.2-1.5,0.3
		c-0.4,0.2-0.6,0.5-0.6,1.1v28.9c0,0.6,0.2,0.9,0.6,1.1c0.4,0.2,0.9,0.3,1.5,0.3v0.9h-14.5v-0.9c0.6,0,1.1-0.2,1.5-0.3
		c0.4-0.2,0.6-0.5,0.6-1.1V74.9h-16.8V86.4z"/>
	<path class="st0" d="M570.5,87.8c0.2,0,0.4,0,0.6-0.1c0.3-0.1,0.4-0.3,0.4-0.6c0-0.2-0.1-0.5-0.3-1c-0.2-0.4-0.4-0.9-0.6-1.4
		c-0.2-0.5-0.5-1-0.7-1.5c-0.3-0.5-0.5-0.9-0.6-1.3h-17.6c-0.1,0.4-0.3,0.8-0.5,1.3s-0.5,1-0.7,1.5c-0.3,0.5-0.5,1-0.7,1.4
		s-0.3,0.7-0.3,1c0,0.4,0.1,0.6,0.4,0.6c0.3,0.1,0.5,0.1,0.6,0.1v0.9H539v-0.9c0.3,0,0.6-0.1,0.9-0.2c0.3-0.1,0.5-0.3,0.6-0.6
		c1.5-3.5,3.1-7.1,4.6-10.5c1.6-3.5,3-6.6,4.2-9.4s2.3-5.1,3.1-7c0.8-1.8,1.2-2.9,1.2-3.2c0-0.5-0.3-0.7-1-0.8v-0.9h15.9v0.9
		c-0.7,0.1-1,0.3-1,0.8c0,0.2,0.3,0.8,0.8,2s1.2,2.7,2.1,4.5c0.9,1.8,1.8,3.8,2.9,6c1,2.2,2.1,4.4,3.1,6.5c1,2.2,2,4.2,2.9,6.2
		s1.6,3.6,2.2,4.9c0.1,0.3,0.3,0.4,0.6,0.6c0.3,0.1,0.6,0.2,0.9,0.2v0.9h-12.6L570.5,87.8L570.5,87.8z M560.3,63.2L554,76.5h12.6
		L560.3,63.2z"/>
	<path class="st0" d="M629.1,86.4c0,0.6,0.2,0.9,0.6,1.1c0.4,0.2,0.9,0.3,1.5,0.3v0.9h-14.1v-0.9c0.4,0,0.9,0,1.4-0.2
		c0.5-0.1,0.8-0.4,0.8-0.8c0-0.5-0.6-1.3-1.7-2.5c-1.1-1.2-2.5-2.8-4.3-4.6c-1.7-1.8-3.7-3.9-5.9-6.1c-2.2-2.3-4.3-4.7-6.5-7.2
		l-0.2,0.2v19.9c0,0.6,0.2,0.9,0.6,1.1c0.4,0.2,0.8,0.3,1.4,0.3v0.9h-13v-0.9c0.5,0,0.9-0.2,1.3-0.3c0.4-0.2,0.6-0.5,0.6-1.1v-29
		c0-0.6-0.2-0.9-0.6-1.1c-0.4-0.2-0.9-0.3-1.4-0.3v-0.9h18.1v0.9c-0.4,0.1-0.7,0.2-1.1,0.3c-0.4,0.2-0.5,0.5-0.5,1.1
		c0,0.1,0.4,0.6,1.3,1.6c0.8,0.9,1.9,2.1,3.2,3.5s2.8,3,4.4,4.7c1.6,1.7,3.2,3.4,4.9,5.2v-15c0-0.6-0.2-0.9-0.6-1.1
		c-0.4-0.2-0.9-0.3-1.5-0.3v-0.9h13.4v0.9c-0.6,0.1-1.1,0.2-1.5,0.3c-0.4,0.2-0.6,0.5-0.6,1.1L629.1,86.4L629.1,86.4z"/>
</g>
<g>
	
		<linearGradient id="SVGID_1_" gradientUnits="userSpaceOnUse" x1="671.0823" y1="21.7348" x2="752.8145" y2="104.1006" gradientTransform="matrix(1 0 0 -1 0 136)">
		<stop  offset="0" style="stop-color:#006838"/>
		<stop  offset="1" style="stop-color:#8DC63F"/>
	</linearGradient>
	<path class="st1" d="M729.7,56.9c-0.6-0.5-1.2-1-1.8-1.6c-0.2,0.5,0,1.1,0.3,1.3C728.6,57.1,729.1,57,729.7,56.9z"/>
	
		<linearGradient id="SVGID_00000072995434512341485460000015684317243770724508_" gradientUnits="userSpaceOnUse" x1="667.9611" y1="24.832" x2="749.6932" y2="107.1978" gradientTransform="matrix(1 0 0 -1 0 136)">
		<stop  offset="0" style="stop-color:#006838"/>
		<stop  offset="1" style="stop-color:#8DC63F"/>
	</linearGradient>
	<path style="fill:url(#SVGID_00000072995434512341485460000015684317243770724508_);" d="M710.4,15.3c-29.3,0-53.1,23.8-53.1,53.1
		s23.8,53.1,53.1,53.1s53.1-23.8,53.1-53.1S739.7,15.3,710.4,15.3z M722.8,49.1c0.4,0.3,0.7,0.7,1.1,1c1.3,1.2,2.9,2,4.5,2.8
		c0.6,0.3,1.3,0.6,1.9,1c1.4,0.9,1.7,1.9,1.2,3.4c0,0.1,0,0.2-0.1,0.2c0.7,0.5,1.3,0.9,1.9,1.4c0.5,0.4,0.9,1,0.9,1.6
		c0.1,0.9-0.4,1.5-1.1,2.1v-0.1c0.2-0.5,0-0.9-0.4-1.1c-0.5-0.3-1.1-0.4-1.6-0.4c-0.7-0.1-1.4-0.1-2.1-0.1c-0.1,0-0.3,0.1-0.4,0.1
		c-1,0.7-1.3,1.7-0.7,2.8c0.3,0.5,0.6,0.9,1,1.3c1.1,0.9,2,1.8,2.6,3.1c0.5,1.1,0.7,2.3,0.3,3.6c0,0.1,0,0.1-0.1,0.2c0,0,0,0,0,0.1
		c-0.5-0.4-0.9-0.9-1.4-1.4c0.8,3.4-0.4,6.3-2.2,9.1c0-0.2,0-0.5,0-0.7c-0.1-1.5-0.8-2.7-1.7-3.9c-1.2-1.6-2.7-2.9-4.3-4.2
		c-1.5-1.2-3-2.4-4.5-3.6c-0.5-0.4-1-0.9-1.4-1.4c-1-1.3-1.1-2.7-0.6-4.2c0.4-1,0.9-1.9,1.6-2.7c0.1-0.1,0.1-0.1,0.1-0.2
		c-0.6,0.3-1.2,0.6-1.9,1c0.4-1.2,1.1-2.1,1.9-3c0.8-0.8,1.8-1.5,2.8-2.1c-0.9,0.1-1.9,0.2-2.8,0.3c1.7-1.8,3.9-2.4,6.4-2.1
		C722.6,51.9,722.4,50.6,722.8,49.1z M723.4,97.3c0.7-0.7,1.4-1.2,2.2-1.7c-1.7-2.6-3.5-5-4.2-8.1c-0.4,0.2-0.7,0.5-1.1,0.8
		c-0.1-0.4-0.2-0.7-0.3-1.1c-0.3-1.6-0.5-3.2-0.5-4.9c0-1.4-0.1-2.7-0.4-4c-0.1-0.4-0.2-0.8-0.6-1.2c0,0.1,0,0.2,0,0.3
		c0,1.4,0.1,2.7,0.1,4.1c0,0.5,0,0.9-0.1,1.4c0,0.1,0,0.2-0.1,0.2c-0.5,0.3-0.9,0.5-1.3,0.7c-0.2-0.7-0.4-1.3-0.6-1.9
		c-0.4-1-1.1-1.9-2.1-2.4c-0.9-0.4-1.7-0.4-2.6-0.2c0.6,0.3,1.1,0.6,1.6,0.9c1.1,0.8,1.9,1.8,2.1,3.2c0.2,1.1,0,2.1-0.4,3.1
		c-0.9,2.3-2.5,3.9-4.6,5.1c-0.6,0.3-1.1,0.5-1.7,0.8c0.3,0,0.6,0,0.9,0c2-0.1,4-0.1,6,0.2c1.3,0.2,2.6,0.4,3.7,1.1
		c0.8,0.4,1.4,1,1.6,1.9c0.1,0.6,0,1.2-0.2,1.7h-21.3l0,0c-1.3-1.5-2.1-3.3-2.5-5.2V92c0,0,0,0-0.1-0.1c-0.1,0.1-0.1,0.2-0.1,0.2
		c-0.6,1-1.3,2-2,2.9c-1,1.1-2.2,1.8-3.7,2.3H691h-5.7c-1.1-0.4-2-1.1-2.7-2.1c-0.7-1.1-0.9-2.4-0.8-3.6c0.2-1.7,0.8-3.2,1.7-4.5
		c0.6-0.9,1.5-1.6,2.4-2.2c1.6-1,3.2-1.9,4.9-2.9c1.5-0.9,3-1.7,4.3-2.8c0.8-0.7,1.6-1.4,2-2.4c0.5-1.3,0.1-2.8-1-3.7
		c-1.1-0.9-2.3-1.2-3.7-1.1c-3.5,0.4-6.1,2.1-8.1,4.9c-0.4,0.6-0.7,1.3-1,2c0,0.1,0,0.2,0,0.3c1.3,1.1,1.5,2.4,0.9,3.9
		c-0.3,0.8-0.7,1.5-1.2,2.1c0,0,0,0-0.1,0.1c0-0.3,0-0.6,0-0.9c-0.5,0-0.7,0.3-0.9,0.6c-0.3,0.5-0.4,1.1-0.5,1.8
		c0,0.4-0.1,0.7-0.1,1.1c-0.2-0.6-0.3-1.1-0.5-1.7c-0.4-1.5-0.7-3-0.7-4.6c0-0.7,0.1-1.4,0.5-2c0.2-0.4,0.5-0.6,1-0.7
		c0.1,0,0.2-0.1,0.2-0.2c1.1-3.7,3.5-6.1,7-7.6c1.5-0.7,3.1-1,4.8-0.9c2.5,0.2,4.3,1.3,5.3,3.6c0.3,0.8,0.6,1.6,0.7,2.4
		c0.1,1.5-0.5,2.7-1.4,3.8c-1,1.1-2.2,2-3.5,2.7c-1.6,0.9-3.2,1.7-4.8,2.6c-1.1,0.6-2.1,1.2-3,1.9c-1.5,1.3-2.3,2.9-2.4,4.8
		c-0.1,1.7,0.9,2.9,2.6,3.1c1.4,0.2,2.8-0.1,4.1-0.6s2.3-1.5,3-2.7c0.8-1.4,1.6-2.8,2.3-4.2c0.9-1.6,1.7-3.1,3.1-4.3
		c1-0.8,2-1.6,3-2.3c1.8-1.3,3.7-2.5,5.5-3.8c0.8-0.6,1.4-1.4,1.7-2.3c0.4-1.1,0.1-2-0.9-2.7c-0.9-0.6-1.8-1-2.9-1.2
		c-1.4-0.3-2.7-0.5-4.1-0.8c-3.4-0.7-6.6-1.6-9.6-3.3c-0.8-0.4-1.5-1-2.2-1.4c-0.1-0.1-0.2-0.2-0.3-0.3c4.2,0.4,8.3,0.8,12.5,1.2
		c-6.9-1.6-13.4-4.2-18.8-9v-0.1c4.4,0.8,8.7,1.7,13.1,2.5c0,0,0,0,0-0.1c-0.5-0.1-0.9-0.3-1.4-0.4c-3.4-1.1-6.6-2.3-9.8-4
		c-1.8-1-3.6-2.1-5.1-3.6c-0.5-0.5-0.9-1-1.3-1.5c-0.1-0.1-0.1-0.2-0.2-0.4c4.9,0.8,9.7,1.5,14.6,2.3l0,0c-0.8-0.2-1.6-0.4-2.4-0.6
		c-5-1.3-9.8-3.2-14.1-6.1c-1.9-1.3-3.7-2.7-5.3-4.4c-0.1-0.1-0.2-0.2-0.3-0.3c0,0,0,0,0-0.1c0.4,0.1,0.7,0.1,1.1,0.2
		c4.8,0.9,9.6,1.8,14.5,2.8c4.8,0.9,9.6,1.8,14.4,2.7c3,0.6,5.9,1.1,8.9,1.7c1.8,0.4,3.7,0.8,5.4,1.5c0.9,0.4,1.8,0.8,2.5,1.5
		c0.4,0.4,0.7,0.8,0.8,1.4c0.1,0.2,0,0.3-0.2,0.3c-1.3,0.7-2.6,1.4-3.8,2.3c-1.2,1-2.3,2.2-2.8,3.7c-0.5,1.4-0.4,2.8,0.1,4.2
		c0.6,1.6,1.6,2.8,2.8,4c1.1,1.1,2.4,2,3.6,2.9c2.9,2.2,5.5,4.7,7.4,7.9c1.1,1.9,1.7,4,1.9,6.3c0.2,2.6,0.4,5.2,0.7,7.9
		c0.1,1,0.2,2,0.7,2.8c0.1,0.2,0.3,0.4,0.4,0.7c0.3-0.1,0.7-0.3,1-0.4c0.9-0.4,1.9-0.6,2.9-0.6c0.3,0,0.6,0,0.9,0.1
		c0.8,0.3,1.3,1.7,1.4,2.7L723.4,97.3z M746.1,72.5c-1.1,0.7-2,1.7-2.7,2.8c-0.8,1.1-1.5,2.3-2.1,3.5c0,0.1-0.1,0.1-0.1,0.2
		c-0.5-0.8-0.8-1.5-0.8-2.4s0.3-1.6,0.9-2.3v-0.1c-0.6,0.2-1.1,0.3-1.7,0.5c-1.7,0.7-3.3,1.6-4.8,2.6c-1.1,0.7-2.1,1.5-3.1,2.2
		c0,0-0.1,0.1-0.2,0.1c1-2.1,1.4-4.3,1.3-6.7c0.5-0.1,0.9-0.1,1.4-0.2c2.6-0.4,5.2-0.8,7.8-1.2c0.1,0,0.2,0,0.3,0
		c0.7,0,1.3-0.3,1.9-0.8c0.7-0.6,1.5-1,2.4-1.2c1.3-0.3,2.4,0.2,3.1,1.3c0.2,0.4,0.4,0.8,0.6,1.2c-0.6-0.1-1.1-0.3-1.6-0.4
		C747.6,71.6,746.8,72,746.1,72.5z"/>
</g>
<ellipse transform="matrix(0.7071 -0.7071 0.7071 0.7071 443.983 616.1168)" class="st3" cx="965.7" cy="-227.9" rx="99.3" ry="99.3"/>
<g>
	<path class="st4" d="M978.9-252.8c1.7-0.2,3.5-0.4,5.2-0.5c-1.9,1.1-3.7,2.4-5.2,3.9c-1.6,1.6-2.9,3.3-3.6,5.5
		c1.3-0.7,2.4-1.3,3.5-1.9c0,0.2-0.1,0.3-0.2,0.4c-1.3,1.5-2.4,3.1-3,5c-1,2.8-0.9,5.5,1.1,7.9c0.8,1,1.7,1.8,2.7,2.6
		c2.8,2.3,5.6,4.5,8.4,6.7c2.9,2.3,5.8,4.8,8,7.8c1.6,2.2,2.9,4.5,3.1,7.3c0,0.5,0,0.9,0.1,1.4c3.5-5.1,5.6-10.6,4.2-17
		c0.9,0.9,1.8,1.7,2.6,2.6l0.1-0.1c0-0.1,0.1-0.3,0.1-0.4c0.7-2.3,0.4-4.5-0.5-6.6c-1.1-2.4-2.8-4.3-4.9-5.9c-0.8-0.6-1.5-1.4-2-2.4
		c-1.1-2.1-0.6-3.9,1.3-5.3c0.2-0.1,0.5-0.2,0.7-0.2c1.3,0,2.6,0,3.9,0.1c1,0.1,2.1,0.3,3,0.8c0.8,0.5,1.1,1.2,0.8,2.1
		c0,0.1-0.1,0.2-0.1,0.3c1.2-1,2.2-2.2,2.1-3.9c-0.1-1.3-0.7-2.3-1.7-3.1c-1.1-0.9-2.3-1.7-3.6-2.6c0-0.1,0.1-0.2,0.1-0.4
		c0.9-2.9,0.3-4.7-2.3-6.4c-1.1-0.7-2.4-1.3-3.6-1.9c-3-1.5-5.8-3-8.3-5.2c-0.7-0.6-1.3-1.2-2-1.8c-0.8,2.8-0.4,5.2,1.9,7.2
		C986.1-257.3,982.1-256.2,978.9-252.8z M998.4-252.3c1.1,1,2.2,1.9,3.4,2.9c-1.1,0.2-2.1,0.3-2.9-0.4
		C998.3-250.3,998.1-251.4,998.4-252.3z"/>
	<path class="st4" d="M1010.6-178.9c-0.5-0.2-1.1-0.2-1.6-0.3c-1.9,0-3.7,0.5-5.5,1.1c-0.6,0.2-1.2,0.5-1.9,0.8
		c-0.3-0.4-0.5-0.8-0.7-1.2c-0.9-1.7-1.1-3.5-1.3-5.3c-0.5-4.9-0.9-9.8-1.3-14.7c-0.3-4.2-1.5-8.1-3.6-11.7
		c-3.5-6-8.3-10.7-13.8-14.8c-2.3-1.7-4.7-3.3-6.8-5.4c-2.2-2.2-4.1-4.6-5.2-7.5c-1-2.6-1.2-5.2-0.2-7.9c1-2.9,3-5,5.3-6.9
		c2.2-1.8,4.6-3.2,7.1-4.4c0.3-0.2,0.4-0.3,0.3-0.6c-0.3-1-0.8-1.8-1.5-2.5c-1.3-1.3-2.9-2.1-4.6-2.8c-3.3-1.3-6.7-2.2-10.1-2.9
		c-5.5-1.1-11.1-2.1-16.7-3.2c-9-1.7-17.9-3.4-26.9-5.1s-18-3.4-27.1-5.2c-0.7-0.1-1.3-0.2-2.1-0.4c0,0.1,0.1,0.2,0.1,0.2
		c0.2,0.2,0.3,0.4,0.5,0.6c2.9,3.2,6.3,5.9,9.9,8.3c8.1,5.4,17,9.1,26.4,11.4c1.5,0.4,3,0.7,4.6,1.1v0.1c-9-1.4-18.1-2.9-27.2-4.3
		c0.2,0.3,0.3,0.6,0.4,0.8c0.8,1,1.5,2,2.4,2.9c2.8,2.8,6.1,4.8,9.5,6.7c5.8,3.1,12,5.4,18.3,7.4c0.9,0.3,1.7,0.5,2.6,0.8v0.1
		c-8.2-1.6-16.3-3.1-24.5-4.7c0,0.1,0,0.1-0.1,0.2c10.1,9,22.2,13.8,35.2,16.7c-7.8-0.8-15.6-1.5-23.4-2.3c0.1,0.2,0.3,0.4,0.5,0.5
		c1.4,0.9,2.7,1.9,4.1,2.7c5.6,3.2,11.7,5,18,6.2c2.6,0.5,5.1,0.9,7.7,1.4c1.9,0.4,3.8,1.1,5.4,2.3c1.8,1.3,2.4,3.1,1.6,5.1
		c-0.6,1.7-1.7,3.2-3.2,4.3c-3.4,2.4-6.9,4.7-10.3,7.1c-1.9,1.4-3.8,2.9-5.6,4.4c-2.6,2.2-4.2,5.1-5.8,8c-1.5,2.6-2.8,5.3-4.4,7.9
		c-1.3,2.2-3.1,4-5.6,5c-2.5,0.9-5,1.6-7.7,1.2c-3.2-0.5-5.1-2.6-4.9-5.8c0.3-3.6,1.7-6.7,4.5-9c1.7-1.5,3.7-2.6,5.6-3.6
		c3-1.6,6-3.2,9-4.9c2.4-1.4,4.7-3,6.6-5.1c1.8-2,2.8-4.3,2.6-7.1c-0.1-1.6-0.6-3.1-1.2-4.5c-1.9-4.3-5.2-6.5-9.9-6.8
		c-3.1-0.2-6.1,0.4-8.9,1.6c-6.4,2.8-11.1,7.4-13.1,14.3c0,0.2-0.2,0.3-0.4,0.4c-0.8,0.2-1.4,0.7-1.8,1.3c-0.7,1.1-0.9,2.4-0.9,3.7
		c0,3,0.6,5.8,1.3,8.6c0.3,1.1,0.6,2.1,0.9,3.1c0.1-0.7,0.2-1.4,0.2-2.1c0.1-1.1,0.3-2.3,0.8-3.3c0.3-0.6,0.8-1.2,1.7-1.2
		c0,0.5,0,1,0,1.6c0.1-0.1,0.2-0.1,0.2-0.2c0.9-1.2,1.7-2.5,2.3-4c1-2.8,0.8-5.3-1.7-7.3c-0.1-0.1-0.2-0.4-0.1-0.5
		c0.6-1.2,1.1-2.6,1.9-3.7c3.7-5.3,8.8-8.4,15.2-9.1c2.5-0.3,4.9,0.3,6.9,2c2,1.8,2.8,4.6,1.8,7c-0.8,1.9-2.2,3.2-3.7,4.5
		c-2.5,2-5.3,3.6-8,5.2c-3.1,1.8-6.1,3.6-9.1,5.4c-1.7,1.1-3.3,2.3-4.4,4c-1.7,2.6-2.9,5.4-3.2,8.5c-0.3,2.4,0.1,4.7,1.5,6.8
		c1.3,1.9,3,3.2,5,3.9h10.6c0.1,0,0.2,0,0.3-0.1c2.7-0.8,5-2.1,6.9-4.2c1.5-1.7,2.7-3.5,3.8-5.5c0.1-0.1,0.2-0.3,0.3-0.4
		c0.1,0.1,0.1,0.1,0.1,0.1c0,0.1,0,0.2,0.1,0.2c0.8,3.6,2.4,6.8,4.8,9.7c0,0,0,0,0.1,0.1h39.9c0.4-1,0.6-2.1,0.3-3.2
		c-0.4-1.7-1.5-2.8-2.9-3.5c-2.2-1.2-4.5-1.7-6.9-2c-3.8-0.5-7.5-0.5-11.3-0.3c-0.6,0-1.1,0.1-1.7,0.1c1.1-0.5,2.2-0.9,3.2-1.5
		c4-2.1,7-5.2,8.7-9.5c0.7-1.9,1.1-3.8,0.8-5.8c-0.4-2.6-1.9-4.5-4-6c-1-0.7-2-1.2-3.1-1.8c1.6-0.4,3.3-0.4,4.9,0.4
		c2,0.9,3.2,2.5,4,4.5c0.5,1.2,0.8,2.4,1.1,3.6c0.8-0.4,1.7-0.9,2.5-1.4c0.1-0.1,0.2-0.2,0.2-0.4c0.1-0.9,0.2-1.8,0.1-2.7
		c-0.1-2.5-0.2-5.1-0.2-7.6c0-0.2,0-0.3,0-0.6c0.7,0.7,0.9,1.4,1.1,2.2c0.6,2.5,0.8,5,0.8,7.5c0,3.1,0.3,6.1,0.9,9.2
		c0.1,0.6,0.3,1.3,0.5,2c0.8-0.5,1.5-1,2.1-1.5c1.3,5.8,4.7,10.3,7.8,15.1c-1.4,0.9-2.8,1.9-4,3.2h23.1
		C1013-175.7,1012.1-178.5,1010.6-178.9z"/>
	<path class="st4" d="M1033.1-225.6c-1.7,0.4-3.2,1.2-4.6,2.3c-1.1,0.9-2.2,1.5-3.5,1.5c-0.2,0-0.4,0-0.5,0.1
		c-4.8,0.7-9.7,1.5-14.5,2.2c-0.8,0.1-1.7,0.3-2.5,0.4c0.2,4.4-0.5,8.6-2.4,12.5c0.1,0,0.2-0.1,0.3-0.2c1.9-1.4,3.8-2.8,5.8-4.2
		c2.8-1.9,5.7-3.7,8.9-4.9c1-0.4,2.1-0.7,3.2-1l0.1,0.1c-1.1,1.2-1.7,2.6-1.6,4.3c0.1,1.6,0.6,3.1,1.5,4.5c0.1-0.2,0.2-0.3,0.2-0.4
		c1.1-2.3,2.4-4.5,4-6.6c1.5-2,3.1-3.8,5.1-5.2c1.4-0.9,2.9-1.6,4.6-1.4c1,0.1,1.9,0.4,3,0.7c-0.4-0.7-0.7-1.5-1.2-2.2
		C1037.5-225.2,1035.5-226.1,1033.1-225.6z"/>
</g>
</svg>
